<svg xmlns="http://www.w3.org/2000/svg" viewBox="0 0 14 14" width="14" height="14" fill="none">
  <defs>
    <linearGradient id="a" x1="1" y1="1.551" x2="15.816" y2="9.901" gradientUnits="userSpaceOnUse">
      <stop stop-color="#00d078"/>
      <stop offset="1" stop-color="#007df0"/>
    </linearGradient>
  </defs>
  <path fill="url(#a)" fill-rule="evenodd" clip-rule="evenodd"
    d="M2 3.516v8.311c0 .096.077.173.173.173h9.654a.173.173 0 0 0 .173-.173V3.516H2ZM2.173.5A1.673 1.673 0 0 0 .5 2.173v9.654c0 .924.749 1.673 1.673 1.673h9.654A1.673 1.673 0 0 0 13.5 11.827V2.173A1.673 1.673 0 0 0 11.827.5H2.173ZM4 7.75a.75.75 0 0 1 .75-.75h1.5V5.5a.75.75 0 0 1 1.5 0V7h1.5a.75.75 0 0 1 0 1.5h-1.5V10a.75.75 0 0 1-1.5 0V8.5h-1.5a.75.75 0 0 1-.75-.75Z"/>
</svg>