<svg xmlns="http://www.w3.org/2000/svg" viewBox="0 0 14 14" width="14" height="14" fill="none">
  <defs>
    <linearGradient id="a" x1=".538" y1="1.131" x2="16.494" y2="10.125" gradientUnits="userSpaceOnUse">
      <stop stop-color="#00d078"/>
      <stop offset="1" stop-color="#007df0"/>
    </linearGradient>
  </defs>
  <path fill="url(#a)" fill-rule="evenodd" clip-rule="evenodd"
    d="M12.226.131a.447.447 0 0 0-.632 0L7.398 4.336a.625.625 0 0 0-.126.253l-.268 1.902a.375.375 0 0 0 .502.505l1.902-.259a.625.625 0 0 0 .255-.127l4.205-4.205a.447.447 0 0 0 0-.631L12.226.131ZM1.75 0h8.21L8.463 1.5H1.75a.25.25 0 0 0-.25.25v8.75h9V7.54l1.5-1.5v6.21A1.75 1.75 0 0 1 10.25 14h-8.5A1.75 1.75 0 0 1 0 12.25V1.75C0 .784.784 0 1.75 0Zm1.125 3.25a.625.625 0 0 1 .625-.625H6a.625.625 0 1 1 0 1.25H3.5a.625.625 0 0 1-.625-.625ZM3.5 5.125a.625.625 0 1 0 0 1.25h1.781a.625.625 0 1 0 0-1.25H3.5Z"/>
</svg>