<svg xmlns="http://www.w3.org/2000/svg" viewBox="0 0 14 14" width="14" height="14" fill="none">
  <defs>
    <linearGradient id="a" x1="15.213" y1="16.965" x2="-3.671" y2="3.551" gradientUnits="userSpaceOnUse">
      <stop stop-color="#ffd600"/>
      <stop offset="1" stop-color="#ff007a"/>
    </linearGradient>
  </defs>
  <path fill="url(#a)" fill-rule="evenodd" clip-rule="evenodd"
    d="M.439.439A1.5 1.5 0 0 1 1.5 0h8a1.5 1.5 0 0 1 1.061.439A1.5 1.5 0 0 1 11 1.5v4.515l-2.557 2.062-4.695-4.695a.5.5 0 0 0-.707 0L1.25 5.616V9.5c0 .066.026.13.074.177a.25.25 0 0 0 .177.073h5.715l-.702.704a1.5 1.5 0 0 0-.365.547H1.5a1.5 1.5 0 0 1-1.061-.439A1.5 1.5 0 0 1 0 9.5v-8C0 1.102.158.721.439.439ZM7.125 2.125a1.5 1.5 0 1 1 0 3 1.5 1.5 0 0 1 0-3Zm5.101 5.006a.447.447 0 0 0-.316-.131.447.447 0 0 0-.316.131L7.398 11.336a.625.625 0 0 1-.126.253l-.268 1.902a.375.375 0 0 0 .502.505l1.902-.259a.625.625 0 0 0 .255-.127l4.205-4.205a.447.447 0 0 0 0-.631l-1.643-1.643Z"/>
</svg>