<?xml version="1.0" encoding="UTF-8" standalone="no"?>
<!-- Created with Inkscape (http://www.inkscape.org/) -->

<svg
   xmlns:dc="http://purl.org/dc/elements/1.1/"
   xmlns:cc="http://creativecommons.org/ns#"
   xmlns:rdf="http://www.w3.org/1999/02/22-rdf-syntax-ns#"
   xmlns:svg="http://www.w3.org/2000/svg"
   xmlns="http://www.w3.org/2000/svg"
   xmlns:xlink="http://www.w3.org/1999/xlink"
   xmlns:sodipodi="http://sodipodi.sourceforge.net/DTD/sodipodi-0.dtd"
   xmlns:inkscape="http://www.inkscape.org/namespaces/inkscape"
   width="200"
   height="184.78194"
   viewBox="0 0 52.916665 48.890221"
   version="1.1"
   id="svg8"
   inkscape:version="0.92.4 (5da689c313, 2019-01-14)"
   sodipodi:docname="Artemis original.svg">
  <defs
     id="defs2">
    <linearGradient
       id="linearGradient873">
      <stop
         id="stop869"
         offset="0"
         style="stop-color:#f6f6f6;stop-opacity:1" />
      <stop
         id="stop871"
         offset="1"
         style="stop-color:#dedfe0;stop-opacity:1" />
    </linearGradient>
    <linearGradient
       id="linearGradient925">
      <stop
         id="stop921"
         offset="0"
         style="stop-color:#818285;stop-opacity:1" />
      <stop
         id="stop923"
         offset="1"
         style="stop-color:#3c2313;stop-opacity:1" />
    </linearGradient>
    <linearGradient
       id="linearGradient884-4">
      <stop
         style="stop-color:#818285;stop-opacity:1"
         offset="0"
         id="stop880" />
      <stop
         style="stop-color:#5a4a42;stop-opacity:1"
         offset="1"
         id="stop882" />
    </linearGradient>
    <linearGradient
       id="linearGradient859-6">
      <stop
         style="stop-color:#22acda;stop-opacity:1;"
         offset="0"
         id="stop855" />
      <stop
         style="stop-color:#262262;stop-opacity:1"
         offset="1"
         id="stop857" />
    </linearGradient>
    <linearGradient
       id="linearGradient843">
      <stop
         style="stop-color:#e5e6e6;stop-opacity:1"
         offset="0"
         id="stop839" />
      <stop
         style="stop-color:#58585a;stop-opacity:1"
         offset="1"
         id="stop841" />
    </linearGradient>
    <radialGradient
       xlink:href="#linearGradient843"
       id="radialGradient845"
       cx="296.49701"
       cy="0.81676805"
       fx="296.49701"
       fy="0.81676805"
       r="48.318081"
       gradientTransform="matrix(1,0,0,1.1558848,0,-3.2794266)"
       gradientUnits="userSpaceOnUse" />
    <radialGradient
       xlink:href="#linearGradient859-6"
       id="radialGradient861"
       cx="195.84482"
       cy="104.48015"
       fx="195.84482"
       fy="104.48015"
       r="338.65964"
       gradientTransform="matrix(0.99996954,-0.00780474,0.00202987,0.26007413,-0.20611663,300.23435)"
       gradientUnits="userSpaceOnUse" />
    <radialGradient
       xlink:href="#linearGradient884-4"
       id="radialGradient886"
       cx="238.19922"
       cy="148.7408"
       fx="238.19922"
       fy="148.7408"
       r="201.54205"
       gradientTransform="matrix(0.11718993,0,0,0.11998162,42.477999,105.22249)"
       gradientUnits="userSpaceOnUse" />
    <radialGradient
       xlink:href="#linearGradient884-4"
       id="radialGradient907"
       gradientUnits="userSpaceOnUse"
       gradientTransform="matrix(1,0,0,0.19251497,0,128.27812)"
       cx="82.366302"
       cy="153.22601"
       fx="82.366302"
       fy="153.22601"
       r="30.612921" />
    <radialGradient
       xlink:href="#linearGradient925"
       id="radialGradient914"
       cx="81.097397"
       cy="553.12482"
       fx="81.097397"
       fy="553.12482"
       r="261.22482"
       gradientTransform="matrix(0.00685717,0.47706514,-0.36384419,0.00522979,379.32446,405.41678)"
       gradientUnits="userSpaceOnUse" />
    <radialGradient
       r="55.277367"
       fy="39.832645"
       fx="52.236855"
       cy="39.832645"
       cx="52.236855"
       gradientTransform="matrix(0.01143364,1.4048087,-0.50811702,0.00413554,105.11474,42.59871)"
       gradientUnits="userSpaceOnUse"
       id="radialGradient879"
       xlink:href="#linearGradient873" />
    <radialGradient
       r="201.54205"
       fy="148.7408"
       fx="238.19922"
       cy="148.7408"
       cx="238.19922"
       gradientTransform="matrix(0.11718993,0,0,0.11998162,42.477999,105.22249)"
       gradientUnits="userSpaceOnUse"
       id="radialGradient849"
       xlink:href="#linearGradient884-4" />
    <radialGradient
       xlink:href="#linearGradient843"
       id="radialGradient845-9"
       cx="296.49701"
       cy="0.81676805"
       fx="296.49701"
       fy="0.81676805"
       r="48.318081"
       gradientTransform="matrix(1,0,0,1.1558848,0,-3.2794266)"
       gradientUnits="userSpaceOnUse" />
    <radialGradient
       xlink:href="#linearGradient859-6"
       id="radialGradient861-9"
       cx="195.84482"
       cy="104.48015"
       fx="195.84482"
       fy="104.48015"
       r="338.65964"
       gradientTransform="matrix(0.99996954,-0.00780474,0.00202987,0.26007413,-0.20611663,300.23435)"
       gradientUnits="userSpaceOnUse" />
    <radialGradient
       xlink:href="#linearGradient884-4"
       id="radialGradient886-4"
       cx="238.19922"
       cy="148.7408"
       fx="238.19922"
       fy="148.7408"
       r="201.54205"
       gradientTransform="matrix(0.11718993,0,0,0.11998162,42.477999,105.22249)"
       gradientUnits="userSpaceOnUse" />
    <radialGradient
       xlink:href="#linearGradient884-4"
       id="radialGradient907-8"
       gradientUnits="userSpaceOnUse"
       gradientTransform="matrix(1,0,0,0.19251497,0,128.27812)"
       cx="82.366302"
       cy="153.22601"
       fx="82.366302"
       fy="153.22601"
       r="30.612921" />
    <radialGradient
       xlink:href="#linearGradient925"
       id="radialGradient914-0"
       cx="81.097397"
       cy="553.12482"
       fx="81.097397"
       fy="553.12482"
       r="261.22482"
       gradientTransform="matrix(0.00685717,0.47706514,-0.36384419,0.00522979,379.32446,405.41678)"
       gradientUnits="userSpaceOnUse" />
    <radialGradient
       r="55.277367"
       fy="39.832645"
       fx="52.236855"
       cy="39.832645"
       cx="52.236855"
       gradientTransform="matrix(0.01143364,1.4048087,-0.50811702,0.00413554,105.11474,42.59871)"
       gradientUnits="userSpaceOnUse"
       id="radialGradient879-2"
       xlink:href="#linearGradient873" />
    <radialGradient
       r="201.54205"
       fy="148.7408"
       fx="238.19922"
       cy="148.7408"
       cx="238.19922"
       gradientTransform="matrix(0.11718993,0,0,0.11998162,42.477999,105.22249)"
       gradientUnits="userSpaceOnUse"
       id="radialGradient849-2"
       xlink:href="#linearGradient884-4" />
  </defs>
  <sodipodi:namedview
     id="base"
     pagecolor="#ffffff"
     bordercolor="#666666"
     borderopacity="1.0"
     inkscape:pageopacity="0.0"
     inkscape:pageshadow="2"
     inkscape:zoom="1.0761588"
     inkscape:cx="83.301431"
     inkscape:cy="98.439458"
     inkscape:document-units="mm"
     inkscape:current-layer="layer1"
     showgrid="false"
     units="px"
     fit-margin-top="10"
     fit-margin-right="10"
     fit-margin-bottom="10"
     fit-margin-left="10"
     inkscape:window-width="1039"
     inkscape:window-height="786"
     inkscape:window-x="681"
     inkscape:window-y="148"
     inkscape:window-maximized="0" />
  <metadata
     id="metadata5">
    <rdf:RDF>
      <cc:Work
         rdf:about="">
        <dc:format>image/svg+xml</dc:format>
        <dc:type
           rdf:resource="http://purl.org/dc/dcmitype/StillImage" />
        <dc:title></dc:title>
      </cc:Work>
    </rdf:RDF>
  </metadata>
  <g
     inkscape:label="Layer 1"
     inkscape:groupmode="layer"
     id="layer1"
     transform="translate(-83.793162,-125.98855)">
    <g
       id="layer1-4"
       transform="matrix(0.6,0,0,0.6,59.481953,99.565409)"
       style="display:inline">
      <g
         id="g936"
         transform="translate(23.288868,-17.838282)">
        <g
           style="display:inline"
           id="layer1-9"
           transform="translate(-3.7797618,-31.75)">
          <path
             style="display:inline;fill:url(#radialGradient849-2);fill-opacity:1;stroke-width:0.041342"
             d="m 43.168942,142.98029 c 0.09483,0.0586 1.496956,-1.93655 2.826799,-4.04231 1.793581,-2.84007 2.612896,-4.56225 4.151937,-7.16102 l 0.40315,-0.68074 c 1.811801,-1.09459 5.198694,-2.34961 6.961663,-2.85177 0.0114,0.0109 -5.89711,13.0292 -6.028134,13.28335 -0.04429,0.0859 -0.12073,0.12813 -0.357288,0.19733 -1.21519,0.35547 -3.797388,1.25674 -5.096613,1.77888 -0.60516,0.2432 -2.046871,0.85354 -2.088807,0.8851 -0.255368,-0.0704 -0.561008,-1.06761 -0.772707,-1.40882 z"
             id="path862"
             inkscape:connector-curvature="0" />
          <g
             style="display:inline"
             transform="translate(-50.716612,7.6866317)"
             id="layer1-0">
            <g
               style="display:inline"
               transform="matrix(0.11718993,0,0,0.11718993,93.194611,97.931303)"
               id="g3724">
              <g
                 id="g858">
                <path
                   id="path3726"
                   d="m 297.68665,129.27031 c -1.66208,-1.86149 -3.99252,-7.51891 -6.58276,-13.06586 l -4.53527,-9.82393 8.96397,-4.54174 c 50.90364,-25.791143 78.6728,-50.772932 75.79,-67.138741 -1.34743,-7.649584 -8.62954,-13.748056 -22.09207,-18.501286 -2.23543,-0.789267 -3.91953,-1.225673 -3.91953,-1.225673 -0.42208,-2.271053 -0.79408,-3.700131 -1.27146,-5.918291 l 2.36305,0.073718 c 6.40677,0.1998668 16.15229,3.075274 23.54552,6.779571 10.73753,5.3799 17.81888,11.859814 21.39957,19.582056 1.87883,4.05191 2.53302,6.976254 2.53242,11.320378 0,7.659299 -2.5514,14.712685 -8.32566,23.025795 -12.72332,18.317538 -39.07385,37.807663 -81.05254,59.950403 l -5.20342,2.81265 z"
                   style="display:inline;fill:#c01f2e;stroke-width:0.35277778"
                   inkscape:connector-curvature="0" />
              </g>
              <path
                 style="display:inline;fill:#c01f2e;stroke-width:0.35277778"
                 d="m -86.196857,385.66061 c -4.417794,-10.38895 -7.391757,-20.34173 -8.775592,-29.36875 -0.924796,-6.03264 -0.933672,-21.87321 -0.01552,-27.69305 4.923187,-31.20623 24.250154,-60.25714 58.006478,-87.19118 39.381658,-31.42248 97.545601,-59.73891 173.306081,-84.37202 20.67607,-6.72272 51.68608,-16.14018 78.36529,-23.79885 l 4.81231,-1.38145 4.0568,10.61828 c 2.23125,5.84005 4.69008,12.22725 5.46407,14.19378 0.774,1.96654 1.30726,3.72697 1.18506,3.91209 -0.22289,0.33758 -9.27386,3.24762 -43.08472,13.85249 -60.86446,19.09029 -92.348423,30.84279 -120.650007,45.03686 -17.966519,9.01073 -31.009363,17.2154 -41.80417,26.29713 -3.766284,3.16859 -10.261946,9.69896 -13.089316,13.15926 -6.2112736,7.6017 -10.66975353,16.83384 -12.18123707,25.22361 -0.74006783,4.10788 -0.56640243,12.46501 0.34930647,16.80908 1.6704875,7.92466 5.3891219,16.33037 10.8577956,24.54321 3.000611,4.50631 3.170763,4.8562 2.469444,5.07795 -1.804455,0.57055 -16.988925,7.95102 -24.742106,12.02602 -27.159022,14.27445 -52.926333,31.15522 -68.681421,44.99483 -1.491587,1.31022 -3.004224,2.38224 -3.361419,2.38224 -0.495388,0 -1.08537,-1.02514 -2.487132,-4.32153 z"
                 id="path855"
                 inkscape:connector-curvature="0" />
              <path
                 id="path3730"
                 d="M 295.66308,76.116065 C 294.70031,74.233618 280.98195,44.29292 266.843,13.215473 c -7.81226,-17.171458 -15.28713,-33.598848 -16.61079,-36.50531 -2.03753,-4.474072 -2.32332,-5.331083 -1.86354,-5.588378 1.0022,-0.56087 7.68999,-2.723564 11.07418,-3.581167 7.76567,-1.967935 14.85823,-2.652412 23.17567,-2.236611 11.49223,0.574513 22.92879,4.531812 32.19112,11.138814 4.29711,3.065237 10.13738,8.897084 13.16185,13.142909 2.72366,3.8235536 6.51602,11.20344244 7.86755,15.3101815 4.50215,13.6801185 3.54182,28.0568475 -2.70771,40.5366255 -6.10708,12.195313 -16.44336,21.910181 -30.80682,28.954751 -6.01634,2.950722 -6.03412,2.955336 -6.66143,1.728777 z"
                 style="display:inline;fill:url(#radialGradient845-9);fill-opacity:1;stroke-width:0.35277778"
                 inkscape:connector-curvature="0" />
              <path
                 id="path3728"
                 d="M 522.61509,474.57843 C 510.6513,465.64599 502.9768,460.18665 492.98176,453.49833 442.80935,419.92479 388.10021,396.32865 326.64703,381.7579 271.1319,368.59506 207.63147,363.1796 152.37479,366.89555 79.500469,371.79627 12.957919,389.50236 -49.237721,420.5419 c -28.771499,14.3588 -50.37027,27.52411 -83.079169,50.64002 -6.985,4.93642 -12.92673,9.11211 -13.20383,9.27936 -0.58877,0.35535 4.85516,-6.81828 10.16689,-13.3972 32.83097,-40.66328 74.42797,-75.06578 121.570278,-100.54381 52.603301,-28.42945 111.283126,-45.63449 171.979182,-50.42458 21.91938,-1.72984 47.0747,-1.73489 69.14444,-0.0138 40.93024,3.19183 82.32571,12.51169 120.10268,27.04017 65.65297,25.24916 122.90697,65.71432 169.37543,119.70872 5.65996,6.57663 15.35095,18.58582 14.92282,18.49247 -0.0716,-0.0155 -4.1782,-3.05075 -9.12591,-6.74479 z"
                 style="display:inline;fill:url(#radialGradient861-9);fill-opacity:1;stroke-width:0.35277778"
                 inkscape:connector-curvature="0" />
            </g>
          </g>
          <g
             style="display:inline;fill:url(#radialGradient907-8);fill-opacity:1"
             id="g1469"
             transform="translate(-20.315821,5.9460939)">
            <path
               d="m 344.4623,510.29067 v -43.3807 l -4.23333,-4.74129 c -2.32833,-2.6077 -4.23333,-4.83514 -4.23333,-4.94986 0,-0.11473 6.74687,-0.20857 14.99305,-0.20857 h 14.99306 v 48.33056 48.33055 H 355.22203 344.4623 Z m -123.47223,-4.9542 v -48.33489 l 12.93986,0.0925 12.93982,0.0925 10.6831,30.33889 c 13.78257,39.14105 13.23971,37.62763 13.42908,37.43823 0.0895,-0.0895 5.7584,-15.37593 12.59752,-33.96989 l 12.43482,-33.80723 13.11152,-0.0925 13.11151,-0.0925 v 48.33483 48.33485 h -9.34692 -9.34695 l -0.0899,-35.66202 -0.0899,-35.66199 -12.49239,35.66898 -12.49239,35.669 -7.21113,-0.0952 -7.21113,-0.0952 -12.17193,-34.74862 c -6.69456,-19.11173 -12.31392,-34.89942 -12.48745,-35.08375 -0.18564,-0.19716 -0.31553,14.14364 -0.31553,34.83681 v 35.17194 h -8.99583 -8.99584 z m -74.08333,0.004 v -48.33055 h 26.9875 26.9875 v 8.99583 8.99583 h -16.93333 -16.93334 v 10.40695 10.40694 h 16.93334 16.93333 v 9.17223 9.17222 h -16.93333 -16.93334 v 10.40694 10.40695 h 16.93334 16.93333 v 9.34861 9.34861 h -26.9875 -26.9875 z m -182.815373,8.68335 c 2.382521,-1.20509 7.87895,-2.98775 10.707784,-3.47285 1.331807,-0.22836 2.421463,-0.58706 2.421463,-0.79711 0,-0.21 -1.322338,-3.47175 -2.938526,-7.24831 -1.616188,-3.77656 -3.055613,-7.18397 -3.198724,-7.57202 -0.236344,-0.64089 -0.290795,-0.65105 -0.593958,-0.11109 -0.183572,0.32692 -2.086427,4.84057 -4.228575,10.03032 -2.142144,5.18975 -3.975019,9.56567 -4.073056,9.72432 -0.286837,0.46411 0.134147,0.34173 1.903592,-0.55326 z m 31.6517821,38.76526 c -0.2351899,-0.38805 -3.0305377,-6.8642 -6.2118841,-14.39146 l -5.784261,-13.68587 -2.822223,0.22228 c -10.532393,0.8296 -17.669451,2.90566 -22.892972,6.65921 -3.85021,2.7667 -4.148854,3.23498 -8.013394,12.56503 -1.966203,4.74694 -3.754127,8.74744 -3.973163,8.89 -0.21904,0.14256 -5.022251,0.26162 -10.673807,0.26458 -8.426049,0.005 -10.35,-0.0843 -10.689161,-0.49297 -0.330041,-0.39768 3.660423,-9.57425 19.751105,-45.42014 11.090593,-24.70696 20.727026,-46.15652 21.414293,-47.66567 l 1.249582,-2.74387 4.576025,0.098 4.576022,0.0981 20.7676834,47.42684 c 11.4222255,26.08474 20.8575536,47.70999 20.9673976,48.05606 0.188278,0.59323 -0.430336,0.63486 -10.8069559,0.72732 -10.6832019,0.0952 -11.0192333,0.0774 -11.434287,-0.60745 z m 61.9108039,0.90484 c -3.105786,-0.94816 -7.445619,-3.93065 -11.641668,-8.00061 -3.76507,-3.65188 -4.650257,-4.94404 -10.726812,-15.65839 -2.365883,-4.1716 -6.397089,-11.12767 -8.958231,-15.45795 -2.561146,-4.33027 -4.656625,-7.93129 -4.656625,-8.00223 0,-0.071 3.690938,-0.17925 8.202084,-0.24067 7.728215,-0.1052 8.308104,-0.15959 10.03716,-0.94153 3.365697,-1.52206 6.342341,-5.41849 7.6956,-10.07357 0.865382,-2.97681 0.595694,-9.12854 -0.52651,-12.00986 -1.146514,-2.94375 -4.362944,-6.16906 -7.240277,-7.26027 -1.972956,-0.74821 -2.792656,-0.81389 -12.073168,-0.96735 -6.616686,-0.10943 -10.13138,-0.29838 -10.477836,-0.56325 -1.044606,-0.79869 -10.7630598,-16.1006 -10.5606712,-16.628 0.3106773,-0.80963 31.3831382,-0.7808 35.3314092,0.0328 9.730832,2.00508 17.311981,8.03501 21.596164,17.17721 2.152633,4.59359 2.951149,8.35635 2.93623,13.83612 -0.01482,5.44135 -0.733905,8.58925 -3.022,13.22916 -2.724211,5.52429 -8.961872,10.83847 -14.910683,12.70311 -0.776111,0.24327 -1.522268,0.50532 -1.658127,0.58236 -0.254363,0.14418 8.772568,14.73133 11.64467,18.81731 2.286191,3.25244 11.35639,12.17736 14.68384,14.44865 3.058971,2.08806 6.180557,3.52157 7.69698,3.53466 0.797398,0.007 0.970139,0.16538 0.970139,0.8903 v 0.88195 l -11.729862,-0.0303 c -6.451424,-0.0166 -12.126737,-0.15148 -12.611806,-0.29955 z m 35.630557,0.3374 c -0.463532,-0.29298 -0.551046,-5.26002 -0.705555,-40.04546 l -0.176389,-39.71103 -8.582961,-8.80886 -8.582956,-8.80883 28.867681,0.005 c 15.87723,0.004 29.05814,0.12647 29.29093,0.27446 0.3061,0.19456 0.45257,2.73198 0.52917,9.16715 l 0.10592,8.89807 -10.31875,-3.1e-4 -10.31875,-3.2e-4 v 39.6875 39.6875 l -9.78959,-0.005 c -5.551314,-0.004 -10.01868,-0.15022 -10.31875,-0.33987 z m 314.63359,0.87591 c -1.47951,-0.28021 -4.21484,-1.05449 -6.07853,-1.7206 -8.60447,-3.07534 -14.96015,-8.4539 -18.39507,-15.56699 -1.94141,-4.02026 -2.7087,-7.49155 -2.57327,-11.64167 l 0.10358,-3.175 8.99583,-0.10251 c 4.94771,-0.0564 9.47667,-0.0162 10.06436,0.0895 1.04913,0.1886 1.07598,0.24649 1.47627,3.18206 0.73064,5.35799 3.14332,9.10477 6.94613,10.78692 4.45498,1.97065 10.44786,0.69599 14.15446,-3.01061 2.30449,-2.30448 3.08321,-4.08647 3.26962,-7.48199 0.13508,-2.46066 0.0436,-3.12385 -0.61962,-4.49397 -1.90147,-3.92793 -7.45257,-6.96898 -16.77039,-9.18735 -4.87697,-1.16114 -9.98488,-3.04395 -13.14397,-4.84498 -3.49825,-1.99443 -7.44336,-5.7131 -9.40491,-8.86517 -4.40842,-7.08388 -5.34783,-16.84189 -2.4172,-25.10804 2.86692,-8.08641 9.2189,-14.18064 17.81641,-17.09356 4.18292,-1.41722 7.58878,-1.92684 12.61773,-1.88803 14.28105,0.11017 26.21531,7.51698 30.05346,18.6522 1.03487,3.00235 1.64084,7.74076 1.20964,9.45882 l -0.23209,0.92474 -9.6065,-0.005 c -5.28355,-0.004 -9.7652,-0.12203 -9.95923,-0.26459 -0.19403,-0.14255 -0.62823,-1.3384 -0.96488,-2.65744 -1.12473,-4.40672 -3.81494,-7.04229 -8.38267,-8.21249 -2.75343,-0.70541 -5.40198,-0.47522 -7.93542,0.68965 -4.02044,1.84859 -5.82398,4.63476 -5.82398,8.99703 0,6.05261 2.05758,7.64953 17.99167,13.96369 6.79616,2.6931 11.37349,4.90932 14.46389,7.00317 10.03498,6.79887 14.33791,17.3229 11.46588,28.04308 -2.13018,7.95118 -6.35466,14.24672 -12.33322,18.37972 -3.09838,2.14189 -5.47109,3.24485 -9.6671,4.49372 -3.85653,1.1478 -11.99677,1.47503 -16.32088,0.65606 z"
               style="display:inline;fill:url(#radialGradient914-0);fill-opacity:1;stroke-width:0.35277778"
               transform="matrix(0.11718993,0,0,0.11718993,62.79382,99.671841)"
               id="path1445"
               inkscape:connector-curvature="0" />
          </g>
          <path
             style="display:inline;fill:url(#radialGradient886-4);fill-opacity:1;stroke-width:0.041342"
             d="m 89.985759,146.13548 c -2.09006,-1.35685 -7.37402,-3.56935 -10.19047,-4.26697 -0.442646,-0.10964 -0.625787,-0.17193 -0.611902,-0.20812 0.01215,-0.0317 -0.0032,-0.0428 -0.03972,-0.0288 -0.04122,0.0158 -0.08611,-0.0389 -0.145924,-0.17781 -0.214139,-0.49739 -3.581396,-8.85261 -9.202959,-22.8354 -2.033981,-5.05923 -3.711341,-9.21207 -3.727465,-9.22854 -0.01613,-0.0165 -1.421763,3.21037 -3.257592,7.10891 l -2.261544,4.80259 -6.207805,1.92667 c 2.111242,-4.75077 6.703367,-15.20282 9.308875,-21.18777 1.365763,-3.137212 1.54895,-3.506518 1.855212,-3.740116 0.661455,-0.504516 1.395415,-0.26941 1.793771,0.574588 0.06513,0.138002 0.611461,1.320638 1.214057,2.628078 0.948771,2.05853 4.18618,9.03597 6.83225,14.72524 1.510421,3.12382 2.904302,6.23833 4.24508,9.10842 3.775316,8.08158 5.938896,12.68597 7.115616,15.14297 0.32171,0.67173 0.65004,1.2874 0.85986,1.61233 0.59766,0.9256 1.94776,2.8826 2.60817,3.78062 0.28514,0.38774 0.35177,0.53058 0.24574,0.52682 -0.0157,-5.9e-4 -0.21067,-0.11923 -0.43324,-0.26372 z"
             id="path3732"
             inkscape:connector-curvature="0" />
        </g>
      </g>
    </g>
  </g>
</svg>
