<svg xmlns="http://www.w3.org/2000/svg" viewBox="0 0 512 512">
  <path fill="#A8B1B3" d="M363.7 254.3c-3 9.6-6.8 18.8-11.4 27.6l18.5 39.8-49.1 49.2-39.8-18.5c-8.8 4.6-18 8.4-27.6 11.4l-15 41.2h-69.5l-15-41.2c-9.6-3-18.8-6.8-27.6-11.4l-39.8 18.5-49.2-49.2 18.5-39.8c-4.6-8.8-8.4-18-11.4-27.6L4 239.2v-69.5l41.2-15c3-9.6 6.8-18.8 11.4-27.6L38.1 87.3l49.2-49.2 39.8 18.5c8.8-4.6 18-8.5 27.6-11.4l15-41.2h69.5l15 41.2c9.6 3 18.8 6.8 27.6 11.4l39.8-18.5 49.2 49.1-18.5 39.8c4.6 8.8 8.5 18 11.4 27.6l41.2 15v69.5z"/>

  <path fill="#D3D8D9" d="M259.3 88.6c0 94.2-76.4 170.6-170.7 170.6-17.7 0-34.7-2.7-50.7-7.7-5.2-1.6-10.4-3.5-15.4-5.6-6.3-2.6-12.3-5.6-18.1-9v-67.1l41.2-15c3-9.6 6.8-18.8 11.4-27.6L38.1 87.3l49.2-49.1 39.8 18.5c8.8-4.6 18-8.4 27.6-11.4l15-41.2h67.1c3.6 6.2 6.8 12.7 9.5 19.3 1.9 4.5 3.6 9.1 5.1 13.8 5.3 16.1 8.1 33.4 8.1 51.4z"/>

  <path fill="#7C8B8E" d="M363.7 254.3c-3 9.6-6.8 18.8-11.4 27.6l18.6 39.8-49.1 49.2-39.8-18.6c-8.8 4.6-18 8.4-27.6 11.4l-15 41.2h-69.6l-15-41.2c-7.2-2.2-14.2-5-21-8.1 1 0 2 0 3 0 120.9 0 218.9-97.9 218.9-218.8 0-1 0-2.1 0-3.1 3.2 6.8 5.9 13.8 8.1 21l41.3 15v69.5z"/>

  <circle fill="#FFFFFF" cx="204.5" cy="204.5" r="129.5"/>
  <path fill="#EDEDED" d="M334 204.5c0 71.6-58 129.6-129.6 129.6-45.1 0-84.8-23-107.9-57.9 20.5 13.7 45.1 21.6 71.6 21.6 71.6 0 129.6-58 129.6-129.5 0-26.5-8-51.1-21.6-71.7C311.1 119.7 334 159.4 334 204.5z"/>

  <circle fill="#FB8A8A" cx="346.9" cy="346.9" r="161.1"/>
  <path fill="#F96363" d="M508 346.9c0 88.9-72.1 161.1-161.1 161.1-50.1 0-94.9-22.9-124.4-58.8 27.8 22.8 63.3 36.5 102 36.5 89 0 161.1-72.2 161.1-161.1 0-38.8-13.7-74.4-36.5-102.2C485.1 251.9 508 296.7 508 346.9z"/>

  <circle fill="#7BDE9E" cx="346.9" cy="346.9" r="135.4"/>
  <circle fill="#FFFFFF" cx="346.9" cy="346.9" r="16.1"/>
</svg>
