<svg xmlns="http://www.w3.org/2000/svg" viewBox="0 0 14 14" width="14" height="14">
  <defs>
    <linearGradient id="a" x1="2.288" y1="3.308" x2="12.712" y2="10.045" gradientUnits="userSpaceOnUse">
      <stop stop-color="#ffd600"/>
      <stop offset="1" stop-color="#ff007a"/>
    </linearGradient>
  </defs>
  <path fill="url(#a)" fill-rule="evenodd" clip-rule="evenodd" d="M10.4774.0859C9.6878-.0716 8.8698-.0042 8.1166.2804c-.7532.2846-1.4114.775-1.8996 1.4153-.4882.6403-.7868 1.4048-.8618 2.2065-.0592.6332.0229 1.2695.2378 1.8636L.4611 10.8978c-.5943.5942-.5844 1.5607.0218 2.1427l.5608.5384c.5867.5632 1.5154.5563 2.0937-.0157l5.2027-5.1463c.5743.186 1.1833.25 1.7877.1852.7927-.085 1.5463-.3882 2.177-.8758.6307-.4877 1.1138-1.1407 1.3955-1.8866.2815-.7452.3509-1.5538.2007-2.3361-.0322-.173-.1003-.3374-.1999-.4825-.1-.1457-.2294-.2687-.38-.3611-.1972-.1209-.4515-.0909-.615.0726l-2 2-.0065.0066c-.0466.0484-.1025.0869-.1644.1132-.0618.0263-.1284.0398-.1956.0398-.0672 0-.1337-.0135-.1956-.0398-.0618-.0263-.1177-.0648-.1644-.1132-.0086-.0089-.0174-.0174-.0266-.0256l-.7457-.6672c-.0857-.0924-.1336-.2138-.1336-.3402 0-.1302.0508-.2552.1415-.3485L11.2132 1.3598c.1442-.1443.1864-.3617.1065-.5494-.0723-.1699-.1811-.3218-.3186-.445-.1375-.1232-.3004-.2147-.4772-.2679-.0153-.0046-.0308-.0085-.0465-.0116Z"/>
</svg>