<svg xmlns="http://www.w3.org/2000/svg" viewBox="-202.36 354.278 1000 133.335">
  <path d="M-68.719 420.945c.288 17.824-6.809 34.972-19.606 47.381-12.393 12.646-29.455 19.621-47.159 19.274-17.777.265-34.875-6.809-47.272-19.553-26.074-25.985-26.149-68.189-.162-94.265l.162-.164c12.433-12.662 29.528-19.653 47.272-19.33 17.744-.273 34.813 6.803 47.159 19.552 12.75 12.328 19.843 29.372 19.606 47.105zM-72.772 420.945c-5.167-11.522-13.534-21.318-24.108-28.218-11.447-7.813-25.025-11.906-38.883-11.72-13.849-.128-27.411 3.958-38.883 11.72-10.409 6.997-18.644 16.772-23.773 28.218 11.21 24.478 35.732 40.109 62.656 39.938 26.007.177 50.629-15.436 61.991-39.938zM-99.991 420.945c-.031 19.59-15.903 35.464-35.493 35.493-19.542-.035-35.356-15.905-35.32-35.446.035-19.542 15.905-35.354 35.445-35.32 9.348.016 18.307 3.73 24.924 10.332 6.81 6.492 10.595 15.535 10.444 24.941z"/>
  <path d="M-56.831 420.945c.541-35.336 29.628-63.543 64.964-63.001.175.003.35.006.525.011 19.776-.127 38.538 8.743 50.991 24.107l-17.275 17.275c-8.035-10.576-20.439-16.931-33.716-17.275-21.475 0-38.883 17.408-38.883 38.883s17.408 38.883 38.883 38.883c13.528-.208 26.226-6.566 34.494-17.275l17.387 17.275c-12.716 15.522-31.817 24.399-51.881 24.105-35.331.833-64.647-27.133-65.48-62.464-.006-.25-.01-.425-.009-.524z"/>
  <path d="M70.204 360.566h50.88c24.163 0 38.883 14.664 38.883 31.883.105 10.977-6.499 20.908-16.665 25.052 13.025 3.864 22.027 15.745 22.22 29.33 0 18.996-15.553 34.494-41.438 34.494h-53.88V360.566zM119.362 407.169c6.672.786 12.717-3.987 13.502-10.66.786-6.672-3.987-12.717-10.66-13.503-.944-.111-1.899-.111-2.843 0H96.089v24.163h23.273zM122.806 458.938c10.386 0 16.663-6.054 16.663-14.72 0-8.664-5.998-14.664-16.663-14.664H96.089v29.384h26.717z"/>
  <path d="M169.076 464.938l17.275-17.221c7.224 8.141 17.556 12.843 28.44 12.943 13.831 0 19.831-6.055 19.831-13.831 0-20.72-60.379-11.11-60.379-53.492 0-18.997 16.663-35.383 43.993-35.383 15.247-.34 29.945 5.7 40.549 16.664l-17.219 17.275c-5.706-6.313-13.718-10.058-22.22-10.388-12.941 0-18.108 5.222-18.108 12.109 0 20.72 60.379 11.11 60.379 53.492 0 19.83-17.275 37.105-45.713 37.105-17.676.17-34.717-6.843-46.858-19.659z"/>
  <path d="M304.554 360.566h23.273l58.546 75.043v-75.043h25.885v120.758h-23.33l-58.489-75.044v75.044h-25.885V360.566z"/>
  <path d="M429.978 360.566h89.707v24.163h-63.878v23.273h49.992v23.275h-49.992v25.939h65.6v24.107h-91.429V360.566z"/>
  <path d="M527.518 360.566h26.718l25.052 81.097h.833l25.052-81.097h24.163l24.995 81.097h.89l24.995-81.097h26.772l-39.716 120.758h-24.995l-24.496-78.487h-1.056l-24.496 78.487h-25.052z"/>
  <path d="M705.1 464.938l17.275-17.221c7.224 8.141 17.556 12.843 28.439 12.943 13.831 0 19.831-6.055 19.831-13.831 0-20.72-60.38-11.11-60.38-53.492 0-18.997 16.387-35.383 43.991-35.383 15.249-.34 29.947 5.7 40.551 16.664l-17.221 17.275c-5.706-6.313-13.716-10.058-22.218-10.388-12.941 0-18.108 5.222-18.108 12.109 0 20.72 60.379 11.11 60.379 53.492 0 19.83-17.275 37.105-45.715 37.105-17.676.17-34.717-6.843-46.858-19.659z"/>
</svg>
