<svg xmlns="http://www.w3.org/2000/svg" fill="none" viewBox="0 0 14 14" width="14" height="14">
  <path fill="url(#a)" fill-rule="evenodd" clip-rule="evenodd"
        d="M14 7c0 3.866-3.134 7-7 7-3.866 0-7-3.134-7-7 0-3.866 3.134-7 7-7 3.866 0 7 3.134 7 7ZM6.3658 4.9375c-.31067 0-.5625.25183-.5625.5625v3c0 .31067.25183.5625.5625.5625h1c.24345 0 .45307-.15517.53075-.37491.17254-.48818.70815-.74405 1.19633-.57152.48818.17254.74405.70815.57152 1.19633-.33417.94545-1.23579 1.62507-2.29856 1.62507h-1c-1.34621 0-2.4375-1.09131-2.4375-2.4375v-3c0-1.34619 1.09129-2.4375 2.4375-2.4375h1c1.06277 0 1.96439.67964 2.29857 1.6251.17254.48817-.08333 1.02378-.57151 1.19632-.48818.17254-1.02379-.08333-1.19633-.57151-.07768-.21974-.2873-.37493-.53075-.37493h-1Z"/>

  <defs>
    <linearGradient id="a" x1="2.288" y1="3.308" x2="12.712" y2="10.045" gradientUnits="userSpaceOnUse">
      <stop stop-color="#ffd600"/>
      <stop offset="1" stop-color="#ff007a"/>
    </linearGradient>
  </defs>
</svg>