<svg xmlns="http://www.w3.org/2000/svg" viewBox="0 0 24 24">
  <path
    d="M4 3c-1.105 0-2 .9-2 2v16c0 1.1.895 2 2 2h16c1.105 0 2-.9 2-2V5c0-1.1-.895-2-2-2H4z"
    fill="#d35400"
  />
  <path
    d="M4 2c-1.105 0-2 .895-2 2v16c0 1.105.895 2 2 2h16c1.105 0 2-.895 2-2V4c0-1.105-.895-2-2-2H4z"
    fill="#e67e22"
  />
  <path
    d="M5 6v2.3c6.443 0 11.667 5.2 11.667 11.7h2.333C19 12.2 12.732 6 5 6zm0 4.6V13c3.866 0 7 3.1 7 7h2.333c0-5.2-4.178-9.4-9.333-9.4zm2.042 5.3c-1.128 0-2.042.9-2.042 2s.914 2.1 2.042 2.1c1.127 0 2.042-1 2.042-2.1s-.915-2-2.042-2z"
    fill="#d35400"
  />
  <path
    d="M5 5v2.3c6.443 0 11.667 5.2 11.667 11.7h2.333C19 11.2 12.732 5 5 5zm0 4.6V12c3.866 0 7 3.1 7 7h2.333c0-5.2-4.178-9.4-9.333-9.4zm2.042 5.3c-1.128 0-2.042.9-2.042 2s.914 2.1 2.042 2.1c1.127 0 2.042-1 2.042-2.1s-.915-2-2.042-2z"
    fill="#ecf0f1"
  />
</svg>
