<svg xmlns="http://www.w3.org/2000/svg" viewBox="0 0 14 14" width="14" height="14" fill="none">
  <defs>
    <linearGradient id="a" x1="2.288" y1="3.308" x2="12.712" y2="10.045" gradientUnits="userSpaceOnUse">
      <stop stop-color="#ffd600"/>
      <stop offset="1" stop-color="#ff007a"/>
    </linearGradient>
  </defs>
  <path fill="url(#a)" fill-rule="evenodd" clip-rule="evenodd"
    d="M.5 1.923C.5 1.137 1.137.5 1.923.5h10.154c.786 0 1.423.637 1.423 1.423v10.154c0 .786-.637 1.423-1.423 1.423H1.923A1.423 1.423 0 0 1 .5 12.077V1.923ZM4 9a1 1 0 1 0 0 2 1 1 0 0 0 0-2Zm-.125-2.5a.625.625 0 0 1 .625-.625c.961 0 1.883.382 2.563 1.062.68.68 1.062 1.602 1.062 2.563a.625.625 0 1 1-1.25 0c0-.63-.25-1.234-.696-1.679A2.375 2.375 0 0 0 4.5 7.125a.625.625 0 0 1-.625-.625ZM4.5 2.875a.625.625 0 1 0 0 1.25c1.426 0 2.793.566 3.801 1.574A5.374 5.374 0 0 1 9.875 9.5a.625.625 0 1 0 1.25 0c0-1.757-.698-3.442-1.94-4.685A6.624 6.624 0 0 0 4.5 2.875Z"/>
</svg>