<svg xmlns="http://www.w3.org/2000/svg" viewBox="0 0 136 136" version="1.1">
  <defs>
    <linearGradient id="linearGradient3862" x1="584.06" y1="459.54" x2="584.06" y2="330.28" gradientUnits="userSpaceOnUse" gradientTransform="matrix(1.0299 0 0 1.0299 -250.78 125.06)">
      <stop offset="0" style="stop-color:#990000"/>
      <stop offset="1" style="stop-color:#ff8686"/>
    </linearGradient>
    <filter id="filter3822">
      <feGaussianBlur stdDeviation="1.92378"/>
    </filter>
    <linearGradient id="linearGradient3854" x1="352.11" y1="594.95" x2="352.11" y2="465.37" gradientUnits="userSpaceOnUse">
      <stop offset="0" style="stop-color:#ff0000"/>
      <stop offset="1" style="stop-color:#d10000"/>
    </linearGradient>
    <linearGradient id="linearGradient3983" x1="-344.15" y1="274.71" x2="-395.85" y2="425.4" gradientUnits="userSpaceOnUse" gradientTransform="matrix(-.67946 0 0 .62779 83.907 267.89)">
      <stop offset="0" style="stop-color:#ffffff"/>
      <stop offset="1" style="stop-color:#ffffff;stop-opacity:0"/>
    </linearGradient>
    <linearGradient id="linearGradient3913" x1="348.73" y1="484.22" x2="376.76" y2="626.24" gradientUnits="userSpaceOnUse">
      <stop offset="0" style="stop-color:#ffe3e3"/>
      <stop offset="1" style="stop-color:#ffffff"/>
    </linearGradient>
  </defs>
  <g transform="translate(-282 -464.36)">
    <rect x="285.11" y="467.48" width="129.77" height="129.77" rx="17.143" ry="17.143" style="stroke:url(#linearGradient3862);stroke-width:3;fill:#ff0000"/>
    <rect x="285.11" y="467.48" width="129.77" height="129.77" rx="17.143" ry="17.143" style="fill:url(#linearGradient3854)"/>
    <path d="m337.06 536.43c-0.0762 8.1801 4.4913 14.585 12.298 13.907 7.8065-0.67819 9.91-7.0576 9.9277-14.412 0.0176-7.3543-1.7226-13.047-10.029-14.249-8.3068-1.2021-12.12 6.5739-12.196 14.754zm26.203 9.5488c-1.0183 2.5742-1.237 10.135-6.5684 12.325-2.2571 1.4321-6.5897 2.1482-9.6104 2.1482-5.8379 0.00002-10.581-2.257-14.23-6.7709-3.6487-4.5139-5.473-10.397-5.473-17.648-0.00003-7.2512 1.8328-13.143 5.4984-17.675s8.4003-6.7981 14.204-6.7981c3.0207 0.00003 7.3533 0.72518 9.6104 2.1754 2.257 1.4503 3.8946 3.4626 4.9129 6.0367-0.59401-4.0472 3.5408-6.9842 5.9115-5.7349 2.3707 1.2492 2.9617 8.1563 2.96 15.93-0.001 7.7734-0.51493 14.501 2.715 17.59 3.2299 3.0894 6.5718-0.0761 8.9817-3.72 2.4097-3.6437 3.6146-8.3118 3.6147-14.004-0.00007-3.6256-0.49222-7.0246-1.4764-10.197-0.98434-3.1724-2.4778-6.082-4.4802-8.7288-3.2244-4.4232-7.2549-7.8314-12.091-10.224-4.8366-2.3929-10.072-3.5893-15.706-3.5894-3.9372 0.00007-7.7046 0.55298-11.302 1.6588-3.5978 1.1059-6.924 2.7284-9.9786 4.8674-5.0233 3.5532-8.9349 8.1487-11.735 13.787-2.8001 5.6379-4.2002 11.738-4.2002 18.3-0.00001 5.4022 0.90789 10.469 2.7237 15.201 1.8158 4.7315 4.4377 8.91 7.8658 12.536 3.394 3.5532 7.2887 6.2633 11.684 8.1305s9.0876 2.8008 14.077 2.8008c4.2765 0 8.553-0.85203 12.83-2.5561 0 0 8.6418-4.5314 10.832 0.78252 2.1898 5.314-8.3116 9.1971-8.3116 9.1971-5.0063 1.8672-10.089 2.8008-15.248 2.8008-6.2791-0.00001-12.202-1.1874-17.768-3.5622-5.5663-2.3748-10.522-5.8283-14.866-10.36-4.3444-4.5321-7.6536-9.7802-9.9277-15.744-2.274-5.9642-3.411-12.372-3.411-19.225-0.00001-6.5987 1.154-12.889 3.462-18.872 2.308-5.9823 5.6002-11.239 9.8768-15.772 4.2765-4.4957 9.2573-7.9764 14.942-10.442 5.685-2.4654 11.582-3.6981 17.692-3.6982 7.6027 0.00007 14.51 1.55 20.721 4.6499 6.2111 3.1 11.404 7.5686 15.579 13.406 2.5455 3.5532 4.4716 7.4054 5.7784 11.557 1.3066 4.1514 1.96 8.5113 1.9601 13.08-0.0001 9.8256-2.7663 17.458-8.2985 22.896-5.5324 5.4385-9.2716 7.4425-14.314 6.3893-6.4147-1.3398-9.4352-10.056-9.4352-12.923z" style="opacity:.25;filter:url(#filter3822);stroke:#000000;stroke-width:3;fill:#000000"/>
    <path d="m334.75 533.03c-0.0762 8.1801 4.4913 14.585 12.298 13.907 7.8065-0.67819 9.91-7.0576 9.9277-14.412 0.0176-7.3543-1.7226-13.047-10.029-14.249-8.3068-1.2021-12.12 6.5739-12.196 14.754zm26.203 9.5488c-1.0183 2.5742-1.237 10.135-6.5684 12.325-2.2571 1.4321-6.5897 2.1482-9.6104 2.1482-5.8379 0.00002-10.581-2.257-14.23-6.7709-3.6487-4.5139-5.473-10.397-5.473-17.648-0.00003-7.2512 1.8328-13.143 5.4984-17.675s8.4003-6.7981 14.204-6.7981c3.0207 0.00003 7.3533 0.72518 9.6104 2.1754 2.257 1.4503 3.8946 3.4626 4.9129 6.0367-0.59401-4.0472 3.5408-6.9842 5.9115-5.7349 2.3707 1.2492 2.9617 8.1563 2.96 15.93-0.001 7.7734-0.51493 14.501 2.715 17.59 3.2299 3.0894 6.5718-0.0761 8.9817-3.72 2.4097-3.6437 3.6146-8.3118 3.6147-14.004-0.00007-3.6256-0.49222-7.0246-1.4764-10.197-0.98434-3.1724-2.4778-6.082-4.4802-8.7288-3.2244-4.4232-7.2549-7.8314-12.091-10.224-4.8366-2.3929-10.072-3.5893-15.706-3.5894-3.9372 0.00007-7.7046 0.55298-11.302 1.6588-3.5978 1.1059-6.924 2.7284-9.9786 4.8674-5.0233 3.5532-8.9349 8.1487-11.735 13.787-2.8001 5.6379-4.2002 11.738-4.2002 18.3-0.00001 5.4022 0.90789 10.469 2.7237 15.201 1.8158 4.7315 4.4377 8.91 7.8658 12.536 3.394 3.5532 7.2887 6.2633 11.684 8.1305s9.0876 2.8008 14.077 2.8008c4.2765 0 8.553-0.85203 12.83-2.5561 0 0 8.6418-4.5314 10.832 0.78252 2.1898 5.314-8.3116 9.1971-8.3116 9.1971-5.0063 1.8672-10.089 2.8008-15.248 2.8008-6.2791-0.00001-12.202-1.1874-17.768-3.5622-5.5663-2.3748-10.522-5.8283-14.866-10.36-4.3444-4.5321-7.6536-9.7802-9.9277-15.744-2.274-5.9642-3.411-12.372-3.411-19.225-0.00001-6.5987 1.154-12.889 3.462-18.872 2.308-5.9823 5.6002-11.239 9.8768-15.772 4.2765-4.4957 9.2573-7.9764 14.942-10.442 5.685-2.4654 11.582-3.6981 17.692-3.6982 7.6027 0.00007 14.51 1.55 20.721 4.6499 6.2111 3.1 11.404 7.5686 15.579 13.406 2.5455 3.5532 4.4716 7.4054 5.7784 11.557 1.3066 4.1514 1.96 8.5113 1.9601 13.08-0.0001 9.8256-2.7663 17.458-8.2985 22.896-5.5324 5.4385-9.2716 7.4425-14.314 6.3893-6.4147-1.3398-9.4352-10.056-9.4352-12.923z" style="fill:url(#linearGradient3913)"/>
    <path d="m391.19 468.4h-75.698c-23.751 0-29.378 7.1854-29.378 27.144v67.823c0.6092 13.574 2.9526 4.9929 7.4131-10.04 5.1841-17.471 22.067-32.741 42.628-44.184 15.693-8.7346 33.26-14.263 65.233-14.843 16.593-0.3009 17.457-26.706-10.198-25.9z" style="fill-rule:evenodd;fill:url(#linearGradient3983)"/>
  </g>
</svg>
