<svg xmlns="http://www.w3.org/2000/svg" viewBox="0 0 701.81 664.45">
  <defs>
    <filter id="f1" color-interpolation-filters="sRGB">
      <feGaussianBlur stdDeviation="3.9708581"/>
    </filter>
    <filter id="f2" color-interpolation-filters="sRGB">
      <feGaussianBlur stdDeviation="3.7445471"/>
    </filter>
    <linearGradient id="g1" y2="4602.6" gradientUnits="userSpaceOnUse" y1="4807.4" x2="1469.1" x1="1471.4">
      <stop stop-color="#fff" offset="0"/>
      <stop stop-color="#fff" stop-opacity="0" offset="1"/>
    </linearGradient>
    <linearGradient id="g2" x1="1499" gradientUnits="userSpaceOnUse" y1="4909.8" gradientTransform="matrix(1.5128 0 0 3.288 -1908 -16286)" x2="1492.1" y2="5150.9">
      <stop stop-color="#fff" offset="0"/>
      <stop stop-color="#fff" stop-opacity="0" offset="1"/>
    </linearGradient>
    <linearGradient id="g3" x1="1480.3" gradientUnits="userSpaceOnUse" y1="5124.3" gradientTransform="matrix(1.4518 0 0 1.4518 -1812.7 -6391.5)" x2="1475.8" y2="4696.8">
      <stop offset="0"/>
      <stop stop-opacity="0" offset="1"/>
    </linearGradient>
  </defs>

  <path filter="url(#f1)" transform="matrix(1.4518 0 0 1.4518 -1799.6 -9229.5)" d="m1641.4 6390.1c-107.63 0.2706-215.28-0.275-322.91 0.3126-24.048 2.4514-42.319 26.789-39.122 50.625 0.3482 99.151-0.7236 198.35 0.5904 297.47 3.5874 23.083 27.309 39.961 50.344 36.906 106.3-0.2637 212.65 0.5529 318.91-0.4368 23.556-3.0737 40.992-27.078 37.904-50.469-0.2579-98.768 0.5433-197.56-0.4045-296.31-2.856-21.558-23.496-39.065-45.313-38.094z"/>
  
  <path stroke="#00f" stroke-width="4.355" fill="#004ac7" d="m123.2 51.597h462.22c32.093 0 57.929 25.837 57.929 57.93v429.56c0 32.093-25.836 57.929-57.929 57.929h-462.22c-32.093 0-57.93-25.836-57.93-57.929v-429.56c0-32.093 25.837-57.93 57.93-57.93z"/>
  
  <path d="m126.47 51.597h462.22c32.093 0 57.93 25.837 57.93 57.93v429.56c0 32.093-25.837 57.929-57.93 57.929h-462.22c-32.093 0-57.93-25.836-57.93-57.929v-429.56c0-32.093 25.837-57.93 57.93-57.93z" fill="url(#g3)"/>
  
  <path opacity=".88" d="m1655.5 4444.8c-4.793 0.5602-1.703 5.5631 1.7187 5.6875 18.515 7.8774 28.751 29.128 25.711 48.75-0.5387 89.326 1.237 178.71-1.0238 268-4.5621 21.944-28.442 36.766-50.219 33.153-96.339-0.5175-192.72 1.1117-289.03-0.9341-17.224-3.4141-30.038-18.915-33.474-35.615-2.4992-9.4552-4.5365 1.9534-4.1674 6.0214-0.9617 11.387 2.9521 23.441 12.579 30.125 9.322 7.6329 21.992 8.3985 33.5 7.1186 104.33-0.3933 208.7 0.892 313-0.7436 18.474-4.0375 29.092-24.974 25.465-42.75-0.5424-97.886 1.1097-195.85-0.9028-293.69-3.5787-14.574-18.078-25.681-33.156-25.125zm-322.56 0.4375c-19.294 2.3707-31.84 23.648-28.092 42.125 0.5441 10.149-1.013 20.746 0.8727 30.609 1.7428 6.6781 4.5781-3.6467 3.8752-6.6402 0.4203-15.714-2.9176-33.723 7.9063-46.812 6.2555-9.2117 16.709-13.421 26.187-18.438-3.582-0.394-7.1305-1.1153-10.75-0.8437z" transform="matrix(-1.4518 0 0 -1.4518 2524.7 7027.5)" filter="url(#f2)" fill="url(#g1)"/>
  
  <path d="m586.8 74.192c-132.1 4.7509-264.68-0.9872-396.96 1.8832-26.533 0.88485-53.899 0.66302-79.895 3.2434-14.886 19.959-12.659 46.026-14.058 69.412 1.2767 76.956 0.52074 153.92 0.63195 230.88 33.718 48.976 71.862 99.832 128.92 124.62 27.008 10.699 58.785 4.8852 81.258-12.357 52.925-33.005 95.092-78.34 144.61-115.67 43.712-38.295 89.637-80.138 149.52-91.934 5.2128-0.74635 11.931 0.0305 9.0532-7.2887-0.85233-62.556 6.5162-126.13-6.7627-187.82-2.7566-6.573-7.5068-15.753-16.31-14.971z" fill="url(#g2)"/>
  
  <g opacity=".8589" fill="#fff" transform="matrix(6.6567 0 0 6.6567 -776.4 -1091.2)">
    <path d="m196.22 232.06h7.4883c-2.3438 4.7578-5.9415 8.4844-10.793 11.18-5.5547 3.0937-12.328 4.6406-20.32 4.6406-7.7344-0.00002-14.414-1.3125-20.039-3.9375-5.625-2.6016-9.8086-6.4453-12.551-11.531-2.7422-5.1094-4.1133-10.664-4.1133-16.664 0-6.5859 1.5586-12.715 4.6758-18.387 3.1172-5.6953 7.3828-9.9609 12.797-12.797 5.414-2.8593 11.602-4.289 18.562-4.2891 5.9062 0.00005 11.156 1.1485 15.75 3.4453 4.5937 2.2969 8.0976 5.5664 10.512 9.8086 2.4374 4.2188 3.6562 8.836 3.6562 13.852-0.00007 5.9766-1.8399 11.379-5.5195 16.207-4.6172 6.0938-10.535 9.1406-17.754 9.1406-1.9454 0-3.4102-0.33984-4.3945-1.0195-0.98442-0.67968-1.6407-1.6758-1.9688-2.9883-2.7657 2.6719-5.9532 4.0078-9.5625 4.0078-3.8906 0-7.125-1.3359-9.7031-4.0078-2.5547-2.6953-3.832-6.2695-3.832-10.723-0.00001-5.5078 1.5469-10.535 4.6406-15.082 3.75-5.5312 8.5547-8.2968 14.414-8.2969 4.1718 0.00004 7.2539 1.5938 9.2461 4.7812l0.87891-3.9024h9.2812l-5.3086 25.207c-0.32817 1.5938-0.49223 2.625-0.49218 3.0938-0.00005 0.58594 0.12886 1.0312 0.38672 1.3359 0.2812 0.28126 0.60932 0.42189 0.98437 0.42188 1.125 0.00001 2.5781-0.67968 4.3594-2.0391 2.3906-1.7812 4.3242-4.1719 5.8008-7.1719 1.4765-3 2.2148-6.1054 2.2148-9.3164-0.00006-5.7656-2.086-10.582-6.2578-14.449-4.1719-3.8906-9.9961-5.8359-17.473-5.8359-6.3516 0.00004-11.742 1.3008-16.172 3.9023-4.4063 2.5782-7.7344 6.2227-9.9844 10.934-2.2266 4.6875-3.3398 9.5742-3.3398 14.66-0.00001 4.9453 1.2422 9.4453 3.7266 13.5 2.5078 4.0547 6.0117 7.0078 10.512 8.8594 4.5234 1.875 9.6914 2.8125 15.504 2.8125 5.6015-0.00001 10.418-0.78517 14.449-2.3555 4.0312-1.5469 7.2773-3.8789 9.7383-6.9961m-38.004-14.449c-0.00002 2.9766 0.59763 5.168 1.793 6.5742 1.2187 1.4063 2.7187 2.1094 4.5 2.1094 1.3359 0.00001 2.5898-0.32812 3.7617-0.98438 0.89059-0.46874 1.7695-1.207 2.6367-2.2148 1.2422-1.4297 2.3086-3.5156 3.1992-6.2578 0.91403-2.7422 1.3711-5.2969 1.3711-7.6641-0.00004-2.6484-0.62114-4.6758-1.8633-6.082-1.2188-1.4296-2.7657-2.1445-4.6406-2.1445-2.0157 0.00003-3.8789 0.78519-5.5898 2.3555-1.711 1.5469-3 3.7618-3.8672 6.6445-0.86721 2.8828-1.3008 5.4375-1.3008 7.6641"/>
  </g>
</svg>
