<svg xmlns="http://www.w3.org/2000/svg" viewBox="92 11 1782.5 520">
  <path d="m92,521l0,-385a125,125 0 0 1 245,-35l91,312a25,25 0 0 0 49,-7l0,-385l100,0l0,385a125,125 0 0 1 -245,35l-91,-312a25,25 0 0 0 -49,7l0,385" fill="red"/>
  <path d="m569.5,521l122.5,-420a125,125 0 0 1 240,0l122.5,420l-104.17,0l-114.33,-392a25,25 0 0 0 -48,0l-114.33,392" fill="red"/>
  <path d="m1025.33,421l231.67,0a50,50 0 0 0 0,-100l-100,0a150,150 0 0 1 0,-300l231.67,0l0,100l-231.67,0a50,50 0 0 0 0,100l100,0a150,150 0 0 1 0,300l-231.67,0" fill="red"/>
  <path d="m1389.5,521l122.5,-420a125,125 0 0 1 240,0l122.5,420l-104.17,0l-114.33,-392a25,25 0 0 0 -48,0l-114.33,392" fill="red"/>
</svg>