<svg xmlns="http://www.w3.org/2000/svg" width="132" height="30">
    <g fill="#000">
        <path d="M75.879 29.639L63.62.414h-6.466L44.845 29.64h6.516l9-21.518 9.053 21.518zM12.31 29.948c-4.396 0-8.845-1.552-12.31-4.655l3.775-4.5c2.586 2.172 5.329 3.518 8.64 3.518 2.585 0 4.189-1.036 4.189-2.743v-.103c0-1.604-.983-2.43-5.846-3.672-5.844-1.5-9.62-3.104-9.62-8.845v-.103c0-5.277 4.24-8.741 10.137-8.741 4.243 0 7.81 1.344 10.76 3.671l-3.31 4.81c-2.587-1.757-5.121-2.844-7.553-2.844-2.43 0-3.724 1.138-3.724 2.534v.053c0 1.913 1.241 2.534 6.259 3.827 5.897 1.552 9.207 3.673 9.207 8.69v.103c.05 5.741-4.346 9-10.603 9zM37.034 20.793h-4.862v8.742H25.81V.518h11.844c6.93 0 11.12 4.086 11.12 10.034v.103c-.05 6.673-5.223 10.138-11.74 10.138zm5.225-10.138c0-2.844-1.966-4.396-5.173-4.396h-4.914v8.845h5.07c3.206 0 5.069-1.915 5.069-4.397v-.052h-.052zM89.121 30c-8.535 0-14.896-6.568-14.896-14.896V15c0-8.225 6.207-15 15.103-15 5.483 0 8.74 1.81 11.43 4.5l-4.033 4.707c-2.225-2.018-4.5-3.259-7.397-3.259-4.914 0-8.432 4.087-8.432 9.052v.104c0 4.965 3.466 9.103 8.432 9.103 3.31 0 5.327-1.345 7.604-3.414l4.033 4.086C98.068 28.035 94.707 30 89.12 30zM104.328 29.535V.518h17.326v5.689h-11.016v5.897h9.155v5.689h-9.155v6.052h11.224v5.69zM125.018.414h2.017v2.068h-2.017zM124.861 7.035c0-2.017 1.553-3.517 3.518-3.517 1.914 0 3.517 1.5 3.517 3.568 0 1.293-.414 2.07-1.138 2.69l-1.24-1.19c.464-.414.723-.879.723-1.55 0-.984-.827-1.657-1.862-1.657-1.034 0-1.861.673-1.861 1.707 0 .621.257 1.086.723 1.553l-1.137 1.136c-.725-.62-1.243-1.396-1.243-2.74zM124.861 14.225c0-2.121 1.553-3.673 3.518-3.673 1.966 0 3.517 1.552 3.517 3.673 0 2.12-1.551 3.671-3.517 3.671-1.965 0-3.518-1.603-3.518-3.671zm3.518 1.757c.983 0 1.862-.723 1.862-1.757 0-1.086-.827-1.76-1.862-1.76-.983 0-1.861.724-1.861 1.76 0 1.086.827 1.757 1.86 1.757zM125.018 27.672h3.775c.932 0 1.396-.413 1.396-1.137s-.464-1.19-1.396-1.19h-3.775v-1.913h3.775c.932 0 1.396-.414 1.396-1.139s-.464-1.138-1.396-1.138h-3.775v-1.913h6.775v1.913h-.982c.568.466 1.085 1.034 1.085 2.017 0 .88-.414 1.553-1.085 1.914.671.57 1.085 1.293 1.085 2.225 0 1.448-.878 2.275-2.482 2.275h-4.396v-1.914z"/>
    </g>
</svg>