<svg width="465" height="140" xmlns="http://www.w3.org/2000/svg">
  <path fill-rule="evenodd" fill="#005aab" d="m69.4302,7.1084c6.3043,-3.8589 13.3772,-6.5673 20.7388,-7.4494c8.0995,-0.908 16.7561,2.7599 21.1411,9.7605c4.8546,7.5682 5.3963,16.9676 4.8236,25.7016c-0.031,1.7386 -0.7739,3.6577 0.3096,5.2261c9.2756,17.5401 8.734,39.7492 -1.2794,56.8612c-8.5793,15.0329 -23.9063,26.0214 -40.9204,29.2304c-1.0575,0.2166 -2.2234,0.3043 -3.0644,1.0626c-8.1303,6.4694 -17.6382,11.9739 -28.1881,12.8611l-3.4668,0c-6.2009,-0.4798 -12.4431,-3.348 -16.044,-8.5535c-4.9371,-6.8973 -6.5106,-15.6262 -6.3353,-23.9577c-9.4407,-10.292 -15.1,-23.9167 -15.6572,-37.8818l0,-4.6844c0.3096,-5.9688 1.3774,-11.9067 3.3996,-17.5401c4.8546,-13.7588 14.9713,-25.5211 27.7499,-32.5268c10.4053,-5.7883 22.5287,-8.3265 34.3839,-7.4237c0.8873,0.1754 1.6869,-0.2269 2.4091,-0.6861zm-1.1968,3.9156c-8.8629,6.139 -16.2864,14.1405 -22.7248,22.7403c-7.5889,10.2456 -13.8516,21.5178 -18.1491,33.538c0.4901,-0.005 1.465,-0.005 1.9552,-0.005c3.828,-9.0642 8.44,-17.8136 14.0321,-25.9131c5.0921,-7.2999 10.9164,-14.2696 18.2007,-19.48c4.2767,-2.9819 9.3583,-5.5252 14.7183,-4.9681c4.0705,0.356 7.5526,3.1779 9.4717,6.6757c3.3533,6.0411 3.7144,13.2015 3.343,19.9546c-4.1941,0.005 -8.3883,0 -12.5825,0.005c-1.006,9.7039 -3.9208,19.0983 -7.4288,28.1625c-1.6819,4.5036 -4.0859,8.77 -7.2947,12.3658c-1.5786,1.6715 -3.374,3.3739 -5.68,3.9104c-1.4237,0.3612 -2.9715,-0.3766 -3.6214,-1.687c-1.2124,-2.337 -1.0318,-5.0918 -0.7841,-7.6351c0.7891,-5.8966 2.8579,-11.5404 5.3702,-16.9057c3.1677,-6.5518 7.0523,-12.8095 11.9481,-18.216c-5.5665,0.0103 -11.1381,-0.005 -16.7045,0.0103c-2.1873,3.1365 -4.0084,6.5209 -5.484,10.0443c-3.1674,7.563 -5.5355,15.5592 -5.9998,23.7825c-0.1856,4.4779 0.031,9.2036 2.0894,13.279c1.2228,2.471 3.704,4.4572 6.5569,4.4057c4.2769,-0.1033 7.9086,-2.8219 10.875,-5.6696c-3.379,5.5561 -7.2224,10.88 -11.8654,15.4611c-3.7504,3.5752 -8.115,7.1659 -13.4491,7.7641c-3.5959,0.4696 -7.0009,-1.826 -8.5228,-4.9938c-2.8374,-5.6384 -2.7753,-12.1853 -2.3575,-18.3346c-0.6241,0.005 -1.2431,0.0103 -1.8623,0.0156c-1.7128,5.8345 -2.6259,11.9219 -2.4867,18.0094c0.1085,7.4394 1.1349,15.5131 6.3044,21.2703c3.1468,3.7556 8.3676,4.8132 13.0415,4.6275c5.6078,-0.2425 10.8079,-2.9973 14.8937,-6.7219c-6.5982,-0.5056 -13.0415,-2.337 -19.0259,-5.1331c4.4728,0.1547 8.8423,-1.2537 12.7217,-3.3896c5.9276,-3.2551 11.0401,-7.8052 15.6263,-12.7319c7.8364,-8.5175 14.1923,-18.3246 19.3202,-28.6784c6.4382,-13.1243 11.0348,-27.337 11.9479,-41.9882c0.3198,-7.2586 -0.5314,-15.2652 -5.5406,-20.9348c6.2474,3.1056 11.8861,7.4184 16.5446,12.6084c0.1857,-5.9896 -0.5882,-12.3866 -4.1168,-17.4114c-2.074,-3.054 -5.5047,-5.1434 -9.2036,-5.4375c-8.6876,-1.0008 -17.0656,2.8168 -24.0765,7.6043z"/>
  <path fill-rule="evenodd" fill="#231f20" d="m195.0493,0.4276c0.9698,0 1.9449,0 2.9199,0c0.0258,3.0644 -0.0154,6.1236 0.031,9.188c1.073,0 2.1512,0 3.2294,0.005c0,0.9235 0,1.8417 0.005,2.7652c-1.0885,0.005 -2.1719,0.005 -3.2553,0.0104c-0.0155,3.6524 0.0207,7.31 -0.0206,10.9626c-0.9698,-0.005 -1.9449,-0.005 -2.9096,-0.005c-0.0103,-7.6456 -0.0155,-15.2858 0,-22.9262l0.0002,0zm23.2409,0.005c0.9749,-0.005 1.95,-0.005 2.9354,-0.005c0,7.6404 0,15.2806 -0.005,22.9262c-0.9801,-0.005 -1.9552,-0.005 -2.9301,-0.005c-0.005,-7.6403 0,-15.2754 0,-22.9157l-0.0003,-0.0005zm21.2133,16.5342c0.0361,-5.5252 -0.0671,-11.0503 0.0567,-16.5703c0.9544,0.0206 1.914,0.0309 2.8736,0.0413c0.0102,2.3627 -0.005,4.7254 0.0153,7.0831c0.9957,0 1.9915,0 2.9974,0.005c-0.0104,0.8873 -0.0104,1.7798 -0.0104,2.6723c-1.0008,0 -2.0015,0 -2.9921,0c-0.0102,2.2596 0,4.514 -0.0102,6.7685c-0.9803,0 -1.9554,0 -2.9303,0l0,0.0001zm52.1718,-16.1474c5.52,-0.0153 11.0452,-0.005 16.5703,-0.005c0,0.7945 -0.005,1.5838 0.005,2.3783c-4.5193,0.0258 -9.0384,-0.0155 -13.5576,0.0206c0.005,0.3198 0.0154,0.9545 0.0207,1.2743c4.4881,0.0102 8.9764,-0.005 13.4698,0.005c-0.005,0.7429 -0.005,1.4806 0,2.2235c-4.4934,0.005 -8.9817,-0.005 -13.4698,0c-0.005,0.3198 -0.005,0.9647 -0.0104,1.2846c4.6275,0.0257 9.255,-0.031 13.8826,0.0257c-0.0155,0.7996 -0.0207,1.5941 -0.0259,2.3937c-2.3163,0.005 -4.6326,0 -6.949,0.005c-0.005,0.5468 -0.005,1.0884 0,1.6354c3.1624,-0.031 6.3249,0.0773 9.4873,-0.0362c2.0119,-0.9389 3.7866,-2.4866 4.9422,-4.3954c1.202,-1.981 0.9957,-4.3695 1.0163,-6.5879c1.037,0 2.0791,0 3.1211,0.005c-0.0103,2.1512 -0.1702,4.4831 1.006,6.397c1.1039,1.8315 2.9611,3.0231 4.839,3.9466c-0.5726,0.7635 -1.1401,1.5373 -1.6973,2.306c-2.2802,-0.97 -4.225,-2.5743 -5.7057,-4.545c-1.3722,2.2183 -3.3739,3.9724 -5.6283,5.2569c-0.6706,-0.6913 -1.3362,-1.3774 -1.9966,-2.0635c0,0.5674 -0.005,1.7024 -0.0102,2.2698c-7.3618,0 -14.7235,0.005 -22.0852,-0.005c-0.005,-0.8461 0,-1.6973 0.005,-2.5433c3.1211,0 6.2423,0.005 9.3685,-0.005c0.005,-0.5366 0.0155,-1.0782 0.0259,-1.6148c-2.208,-0.0414 -4.4161,-0.0155 -6.619,-0.0259c-0.0102,-3.1984 -0.005,-6.402 -0.005,-9.6007l0.0003,0.0003zm36.7932,-0.392c0.9699,0 1.945,0 2.9252,0c0.005,5.5252 0.0102,11.0503 0,16.5756c-0.9802,0 -1.9553,0 -2.9252,-0.005c-0.005,-5.52 -0.0102,-11.0451 0,-16.5703l0,-0.0003zm20.8574,0.005c0.9751,-0.005 1.9501,-0.005 2.9354,-0.005c0.005,2.9768 -0.005,5.9483 0.005,8.9249c1.0627,0.005 2.1254,0.005 3.1932,0.0103c-0.005,0.9492 -0.0309,1.8985 -0.0568,2.8529c-1.0472,-0.0155 -2.0944,-0.0206 -3.1364,-0.0206c-0.0155,3.7195 0,7.439 -0.0104,11.1587c-0.9802,-0.005 -1.9552,-0.005 -2.9303,-0.005c0,-7.6403 0,-15.2805 0,-22.9157l0.0003,-0.0005zm-190.229,0.8409c5.7883,-0.0929 11.5818,-0.0206 17.3752,-0.0361c-0.2373,2.7342 -0.748,5.4375 -1.331,8.1149c1.2072,0.005 2.4092,0.005 3.6164,0.005c0,0.8823 0,1.7644 0,2.6414c-3.3119,0.0103 -6.6188,-0.005 -9.9309,0.0103c0,1.2536 0,2.5073 0.005,3.7608c2.3936,0.0104 4.7926,0 7.1863,0.0104c0,2.5227 0.005,5.0454 0,7.568c-0.9802,0 -1.9553,0 -2.9303,0.005c0,-1.6407 0,-3.276 -0.0259,-4.9114c-4.5965,0.0413 -9.1931,-0.0361 -13.7845,0.0465c-0.0361,-0.9028 -0.067,-1.8056 -0.0722,-2.7084c2.177,-0.0104 4.3489,0 6.5261,-0.0104c0,-1.2535 0,-2.5072 0.005,-3.7608c-3.0128,-0.0155 -6.0204,0 -9.0281,-0.0103c-0.005,-0.8821 -0.005,-1.7591 0,-2.6414c5.1331,-0.0102 10.2663,0.0104 15.3993,-0.005c0.4025,-1.8056 0.7274,-3.6319 0.9647,-5.4632c-4.643,-0.0259 -9.2911,0 -13.9341,-0.0155c-0.0155,-0.8668 -0.031,-1.7335 -0.0414,-2.6001l0.0004,0.0003zm88.5318,-0.2012c0.9751,0 1.9553,0 2.9406,0.005c-0.005,1.9501 -0.005,3.9054 0,5.8554c4.6224,0.0154 9.2395,0 13.8619,0.0103c-0.005,0.8822 -0.0102,1.7643 -0.0102,2.6466c-5.5975,-0.0104 -11.1949,0.005 -16.7923,-0.0104c0,-2.8322 0,-5.6696 0,-8.507l0,0.0001zm28.6112,0.619c1.104,-0.005 2.2132,-0.0102 3.3224,-0.005c-0.0155,1.9037 0.0155,3.9207 1.0678,5.5871c1.5839,2.5742 4.416,4.0032 7.0935,5.1743c-0.6397,0.7171 -1.2846,1.4239 -1.9242,2.1357c-3.116,-1.1658 -5.9534,-3.1211 -7.8777,-5.8708c-1.9191,2.755 -4.7927,4.7257 -7.924,5.8606c-0.6294,-0.7068 -1.2588,-1.4186 -1.8831,-2.1307c2.6156,-1.14 5.355,-2.5278 6.9698,-4.9834c1.14,-1.6974 1.2072,-3.797 1.1555,-5.7677l0,-0.0001zm62.3142,-0.005c1.0215,0 2.043,0 3.0695,0.005c0.0104,3.4307 -0.2785,7.078 1.295,10.2507c1.0369,2.0584 2.8323,3.6113 4.7409,4.8391c-0.6345,0.7378 -1.2741,1.4754 -1.9086,2.2028c-2.3835,-1.4393 -4.3645,-3.4873 -5.6284,-5.9739c-1.331,2.5691 -3.2862,4.8028 -5.7161,6.3763c-0.7273,-0.6602 -1.4651,-1.3155 -2.1925,-1.9655c2.4144,-1.6199 4.6018,-3.7867 5.5355,-6.6086c1.037,-2.925 0.7584,-6.0823 0.8047,-9.126l0,0.0001zm-114.0939,0.1857c3.8433,-0.0516 7.6867,-0.0257 11.5301,-0.0155c-0.3818,3.7556 -1.9449,7.6094 -5.0093,9.9619c-1.7592,1.4238 -3.8022,2.4401 -5.9224,3.1985c-0.6294,-0.6707 -1.2536,-1.3413 -1.883,-2.0068c3.9671,-1.4703 8.4089,-3.9311 9.2756,-8.4709c-2.6568,-0.031 -5.3085,-0.0104 -7.9653,-0.0155c-0.0102,-0.8874 -0.0155,-1.7695 -0.0257,-2.6517zm-44.0261,1.0111c3.7197,-0.005 7.4341,-0.0154 11.1485,0.005c-0.1033,6.8923 -4.2613,13.217 -10.1631,16.6116c-0.8099,-0.5674 -1.594,-1.1659 -2.3524,-1.7952c4.5604,-2.5125 8.476,-6.8253 9.0589,-12.175c-2.5587,-0.0155 -5.1227,-0.005 -7.6815,-0.005c-0.005,-0.8822 -0.0104,-1.7643 -0.0104,-2.6414zm22.5393,0.2838c3.7092,0 7.4236,-0.005 11.1328,0.005c-0.1444,6.8046 -4.3747,13.0882 -10.2714,16.3228c-0.7376,-0.5933 -1.4805,-1.1866 -2.2233,-1.7695c4.4365,-2.5331 8.3935,-6.6757 9.0537,-11.9274c-2.5639,-0.0362 -5.1279,-0.005 -7.6867,-0.0207c-0.005,-0.8718 -0.005,-1.7384 -0.005,-2.6103l-0.0001,0.0001zm41.8798,12.2782c0,-0.877 0.005,-1.7541 0.0103,-2.6311c7.3463,-0.0103 14.6874,0 22.0337,-0.0103c0.005,0.8821 0.0102,1.7644 0.0257,2.6414c-1.8004,0.0102 -3.5956,0.0102 -5.391,0.0102c-0.0104,2.626 0,5.2569 -0.0104,7.8829c-0.9543,0.0102 -1.9086,0.031 -2.8579,0.0567c-0.1599,-2.6413 -0.031,-5.293 -0.0722,-7.9343c-1.7437,-0.0104 -3.4823,-0.0104 -5.2157,0c-0.0103,2.5433 0,5.0918 -0.0103,7.6351c-0.9803,0 -1.9552,-0.005 -2.9303,-0.005c-0.005,-2.5433 0.005,-5.0867 -0.005,-7.6353c-1.8572,0 -3.7196,0 -5.5768,-0.0102l-0.0001,-0.0001zm-17.9477,0.2012c0.9956,0 1.9913,0 2.9922,0c0,1.5012 0,3.0076 0.005,4.5087c4.3901,0.0104 8.7856,0 13.181,0.0104c0,0.8874 -0.005,1.7748 0,2.6672c-5.3963,0.005 -10.7873,0.005 -16.1783,0c-0.0104,-2.3937 -0.0104,-4.7926 0,-7.1863l0.0001,0zm67.7775,0.619c3.6627,-0.8306 7.599,-0.8719 11.205,0.258c1.656,0.5055 3.5236,2.0531 2.8632,3.9878c-0.846,2.0223 -3.281,2.5536 -5.2155,2.894c-3.3018,0.3974 -6.7841,0.4386 -9.9258,-0.7737c-1.3825,-0.5263 -2.8219,-1.7902 -2.5381,-3.4203c0.3043,-1.718 2.1048,-2.5331 3.6112,-2.9458zm-0.2631,3.3791c1.4031,1.6457 3.7505,1.5786 5.7263,1.6405c1.718,-0.0929 3.6989,-0.0362 5.0763,-1.2433c0.2528,-1.723 -2.275,-1.6818 -3.4512,-1.8779c-2.4247,0.0517 -5.6232,-0.65 -7.3514,1.4807zm20.9243,-3.9981c0.9907,0 1.9915,0 2.9923,0c0,1.5064 0,3.0076 0.005,4.5087c4.5242,0.0104 9.0486,0 13.573,0.005c-0.005,0.8925 -0.005,1.7799 0,2.6723c-5.5252,0.005 -11.0452,0.005 -16.5705,0c-0.0102,-2.3937 -0.005,-4.7926 0,-7.1863l0.0002,0.0003zm-48.4676,2.1305c7.341,-0.0206 14.6821,0.0208 22.0233,-0.0206c0.0154,0.8873 0.0309,1.7747 0.0464,2.6568c-7.3566,0.0104 -14.708,0 -22.0595,0.005c-0.005,-0.8772 -0.0102,-1.7593 -0.0102,-2.6415l0,0.0003zm-15.6418,17.1534c4.5449,-0.005 9.0951,-0.005 13.6401,0c-0.2064,1.8984 -0.418,3.7969 -0.6294,5.7006c5.9173,0.0103 11.8345,0 17.7569,0.005c-0.2837,2.7807 -0.5778,5.5665 -0.877,8.3471c-1.6509,0.005 -3.2966,0.005 -4.9422,0c1.9811,3.2346 2.7291,7.2121 1.8366,10.9161c-1.2484,5.4685 -5.3602,9.8691 -10.1322,12.5826c-7.2327,4.0859 -16.3123,4.9578 -24.0971,1.9552c-4.7462,-1.8572 -9.0178,-5.5406 -10.5913,-10.5034c-1.7178,-5.1744 0.0568,-10.906 3.5134,-14.9453c-1.6923,-0.0104 -3.3791,-0.031 -5.061,-0.0413c0.2837,-2.7703 0.5676,-5.5407 0.8668,-8.311c6.0255,-0.005 12.0459,0 18.0715,0c0.2219,-1.8985 0.4282,-3.802 0.6449,-5.7057l0,0.0001zm2.1564,13.8516c-4.7564,1.5321 -8.1975,6.6911 -7.243,11.69c0.6345,3.8383 4.2715,6.7892 8.1406,6.7633c6.5725,0.2632 12.4123,-6.7478 10.3797,-13.15c-1.3051,-4.6481 -6.8922,-6.9851 -11.2773,-5.3033zm-97.2605,-4.4985c5.8036,-5.4685 14.1972,-7.8157 22.0386,-6.6912c5.128,0.7172 10.0496,3.1986 13.4133,7.1812c5.5096,0.0465 11.0193,0.0104 16.5291,0.0155c0.2837,-2.6 0.5674,-5.195 0.8563,-7.7951c4.5295,-0.0102 9.0538,-0.005 13.5833,0c-1.8159,16.6838 -3.6215,33.3627 -5.4632,50.0413c-4.545,-0.0103 -9.0901,0.0103 -13.6349,-0.0103c0.6087,-5.52 1.2278,-11.04 1.8365,-16.5601c-5.5201,-0.005 -11.0349,-0.0103 -16.5497,0.005c-6.4177,5.6025 -15.4355,8.0272 -23.8031,6.495c-4.5399,-0.8409 -8.9146,-3.0746 -11.8551,-6.6911c-2.7343,-3.2964 -4.0395,-7.6609 -3.7454,-11.9171c0.2786,-5.36 2.8889,-10.4466 6.7943,-14.0733l0,0.0002zm14.2437,4.0238c-3.7661,1.068 -6.9594,4.1169 -7.986,7.9241c-0.8667,3.0077 -0.1857,6.5621 2.1821,8.7185c2.306,2.1255 5.6749,2.6466 8.6877,2.1925c4.0342,-0.5778 7.9859,-2.9869 9.7193,-6.7735c1.4702,-3.1315 0.8202,-7.1141 -1.6405,-9.5646c-2.7703,-2.8839 -7.2225,-3.6009 -10.9626,-2.497zm25.0722,4.7153c0.3353,3.0747 0.0463,6.1959 -0.8616,9.157c3.8588,-0.0155 7.7126,0.005 11.5713,-0.0155c0.3354,-3.0489 0.6914,-6.0926 1.0268,-9.1466c-3.9157,0 -7.8262,-0.005 -11.7365,0.005l0,0.0001zm92.989,-16.0905c4.5501,-0.0155 9.1003,-0.005 13.6504,-0.005c-0.4128,4.0084 -0.841,8.0169 -1.2588,12.0253c3.6371,0.005 7.274,-0.005 10.911,0.005c-0.3043,2.7496 -0.6139,5.4993 -0.9233,8.249c-3.6423,0.031 -7.2896,-0.0515 -10.9318,0.0414c-0.6396,6.0874 -1.3104,12.1698 -2.0068,18.2469c-4.5399,-0.0155 -9.0848,0.005 -13.6247,-0.0102c1.3929,-12.8508 2.7962,-25.7016 4.184,-38.5524zm126.367,22.5546c5.8347,-6.1545 9.2808,-14.2282 11.0865,-22.436c5.133,-0.0103 10.2609,0.0412 15.3941,-0.0258c0.8305,7.8003 2.8477,15.7913 7.795,22.0595c4.024,5.1536 9.998,8.868 16.524,9.7244c-0.2321,2.9819 -0.5572,5.9534 -0.8358,8.9301c-7.6402,-0.6346 -15.1878,-3.2191 -21.2959,-7.9087c-4.8184,-3.6731 -8.7907,-8.4863 -11.3547,-13.9857c-2.698,6.5053 -7.7486,11.8861 -13.8619,15.3219c-6.8871,3.9001 -14.7855,5.8192 -22.6578,6.1547c0.3353,-3.0954 0.6809,-6.1857 1.0368,-9.2707c6.8716,-0.4127 13.4802,-3.5287 18.1697,-8.5637zm-93.8145,2.3886c0.9286,-7.919 1.7282,-15.8533 2.6878,-23.7722c4.5192,0.0361 9.0332,0.005 13.5525,0.0155c-0.6759,6.4074 -1.3827,12.8094 -2.0585,19.2117c16.1526,0.0103 32.3049,0.005 48.4575,0.005c-0.3147,2.9974 -0.6552,5.9895 -0.9699,8.992c-19.4181,0.0207 -38.8361,-0.0103 -58.2542,0.0103c-1.1556,0.0104 -2.5381,-0.1186 -3.2242,-1.1762c-0.4902,-1.0266 -0.289,-2.1978 -0.191,-3.2862l0,0.0001zm-6.9335,21.6105c0.3147,-3.0695 0.5727,-6.1494 0.9543,-9.2085c23.7361,0.0463 47.4723,0.005 71.2031,0.0206c-0.3199,3.0644 -0.6448,6.1288 -0.975,9.1879c-4.4779,0.005 -8.9558,-0.005 -13.4286,0.005c-0.9183,7.9292 -1.8056,15.8584 -2.7084,23.7875c-4.5399,0.0207 -9.0797,-0.0205 -13.6247,0.0207c0.8461,-7.9445 1.7953,-15.8688 2.6723,-23.8082c-5.4994,-0.005 -10.9987,-0.0155 -16.4981,0.005c-0.8976,7.9291 -1.7902,15.8586 -2.698,23.7824c-4.5244,0.005 -9.054,0.005 -13.5835,0c0.8874,-7.9291 1.8005,-15.8583 2.693,-23.7875c-4.6688,-0.0104 -9.3377,0.005 -14.0064,-0.005l0,0.0001zm-73.1531,-4.483c4.545,0 9.09,0 13.6349,0c-0.2218,2.177 -0.4437,4.3542 -0.6912,6.5312c9.7503,0.0361 19.5006,0.005 29.2509,0.0155c0.2579,-2.1772 0.5055,-4.3593 0.748,-6.5416c4.5501,-0.0154 9.0951,0 13.6453,-0.005c-1.0164,9.3272 -2.0687,18.6545 -3.0954,27.9818c-17.6743,0 -35.3487,0.0258 -53.0231,-0.0102c-1.5888,0.1597 -3.4615,-0.8824 -3.1417,-2.7084c0.8049,-8.4298 1.7902,-16.8387 2.6723,-25.2632l0,-0.0001zm12.0977,13.991c-0.2426,2.1823 -0.4696,4.3695 -0.6862,6.5568c9.7451,-0.0154 19.4903,-0.005 29.2406,-0.005c0.2424,-2.1875 0.5159,-4.3695 0.7171,-6.5571c-9.7556,0.0208 -19.5161,0.005 -29.2715,0.005l0,0.0003zm-93.4586,10.782c0.7016,-7.2947 1.4858,-14.579 2.2339,-21.8685c4.5243,-0.005 9.0487,-0.005 13.5782,0c-0.5469,5.6076 -1.1143,11.2155 -1.656,16.823c14.4654,0.0104 28.931,0 43.4016,0.005c-0.3145,2.7495 -0.65,5.4992 -0.9801,8.2543c-17.8858,-0.0105 -35.7717,0.0307 -53.6576,-0.0208c-1.7024,0.0982 -3.2141,-1.4859 -2.92,-3.1933l0,0.0003zm232.5009,-12.0354c24.5822,-0.005 49.1642,0 73.7464,0l0,0.7582c-0.3198,2.7137 -0.5365,5.4427 -0.7841,8.1615c-24.6286,0.0207 -49.2571,0.0104 -73.8805,0.0104c0.2992,-2.9768 0.5984,-5.9535 0.9182,-8.9301zm-236.8653,27.6619c2.0017,0 4.0085,0 6.0153,0.005c0.9957,2.3936 1.9551,4.7977 2.9819,7.1811c1.6302,-2.3526 3.2603,-4.7049 4.9163,-7.0317c1.9553,-0.3972 4.0601,-0.0359 6.072,-0.1445c-2.9507,3.9208 -6.1235,7.6921 -8.8784,11.7471c-0.4437,2.3215 -0.5984,4.6946 -0.908,7.0418c-2.0222,-0.0567 -4.0445,-0.0826 -6.0617,-0.0105c0.4231,-2.5278 1.0266,-5.0452 1.1247,-7.6093c-1.5683,-3.8071 -3.5235,-7.4441 -5.2621,-11.1793l0,0.0003zm25.5418,0.129c3.6936,-0.9131 8.2386,-0.5466 10.8799,2.5021c2.3062,2.7858 1.9966,6.8408 0.7068,10.0083c-1.4135,3.5595 -4.9834,5.9379 -8.734,6.3608c-3.3738,0.4386 -7.3049,-0.1186 -9.6264,-2.8425c-2.1409,-2.5845 -1.8521,-6.2939 -0.8357,-9.286c1.1349,-3.3945 4.1632,-5.9276 7.6094,-6.7427zm1.0059,4.0652c-3.085,1.2435 -4.5244,5.1589 -3.5442,8.2232c0.7687,2.3112 3.6732,3.1727 5.7935,2.2494c3.1211,-1.3156 4.5242,-5.3653 3.4099,-8.4503c-0.8408,-2.1925 -3.6266,-2.9095 -5.6592,-2.0223zm168.3036,-3.5854c2.7085,-1.336 5.8398,-0.8409 8.6928,-0.2992c-0.0517,1.4547 -0.1084,2.9097 -0.16,4.3644c-1.6354,-0.5829 -3.4512,-1.2433 -5.1588,-0.5882c-0.8357,0.2633 -1.3,1.3156 -0.7688,2.0636c1.3723,2.0274 3.8279,3.214 4.7412,5.5871c0.9594,2.5745 -0.7429,5.4787 -3.1315,6.5571c-2.8632,1.336 -6.1237,0.7377 -9.1003,0.1908c0.0361,-1.5425 0.0722,-3.0851 0.098,-4.6275c1.852,0.7944 3.9517,1.6869 5.9689,0.9491c0.8925,-0.2735 1.2174,-1.4341 0.6447,-2.1459c-1.429,-1.9914 -3.7813,-3.3017 -4.6377,-5.6903c-0.8822,-2.435 0.5313,-5.2775 2.8115,-6.361zm37.0667,0.459c3.4152,-1.8056 7.4752,-1.465 11.1173,-0.6137c-0.0308,0.7635 -0.0567,1.5271 -0.0721,2.2903c-3.0335,-1.0317 -6.5106,-1.6042 -9.4925,-0.1235c-3.8278,1.8055 -5.6179,6.5464 -4.7203,10.5499c0.3612,1.5992 1.5529,2.9766 3.1109,3.5079c2.4452,0.8719 5.133,0.4643 7.5732,-0.2063c0.2476,-2.1205 0.5932,-4.2302 0.8821,-6.3454c-1.3104,0 -2.6052,0 -3.9052,-0.005c0.0722,-0.6139 0.1547,-1.2227 0.2373,-1.8262c2.0789,-0.0103 4.1529,-0.0103 6.237,-0.005c-0.5571,3.2915 -0.9956,6.5983 -1.4547,9.9052c-3.5183,0.7221 -7.2895,1.496 -10.7822,0.263c-2.2027,-0.7325 -3.9207,-2.6825 -4.3334,-4.968c-0.8564,-4.7254 1.2382,-10.1371 5.6026,-12.4227l0,-0.0005zm42.2874,-1.0007c0.7738,0 1.5425,-0.005 2.3267,0c-1.0627,6.2218 -2.012,12.464 -2.8065,18.732c-1.0369,0 -2.0686,0 -3.0953,-0.005c-2.4969,-5.2776 -5.2672,-10.4157 -7.9344,-15.6004c-0.9647,5.1692 -1.6302,10.39 -2.3009,15.6056c-0.7841,0 -1.558,0 -2.3317,0.005c1.0782,-6.2267 2.0015,-12.4793 2.8219,-18.7473c1.0368,0.005 2.0789,0.0155 3.1211,0.0412c2.4865,5.3396 5.1331,10.6118 7.9499,15.7759c0.8202,-5.2569 1.5888,-10.5242 2.2492,-15.8069l0,-0.0001zm7.7022,1.4343c3.0541,-2.0431 6.9645,-2.0533 10.421,-1.2073c-0.0465,0.7119 -0.0826,1.4292 -0.1187,2.1462c-2.5021,-0.7687 -5.3239,-1.1403 -7.759,0.0412c-2.9611,1.3258 -4.6636,4.5244 -4.8493,7.6713c-0.2527,2.306 0.4953,4.973 2.631,6.1855c2.533,1.4394 5.5871,0.7118 8.2336,0.0207c-0.2115,0.7428 -0.4178,1.4908 -0.6242,2.2388c-2.9406,0.5004 -6.1597,0.9647 -8.93,-0.4487c-2.2338,-1.068 -3.6061,-3.4564 -3.7454,-5.8864c-0.2941,-4.0392 1.2227,-8.4914 4.741,-10.7613zm-243.0869,17.2977c1.1762,-6.2114 2.1564,-12.4587 2.9354,-18.7267c2.1616,-0.0105 4.3283,0 6.495,-0.0155c1.6457,4.0238 3.1676,8.0942 4.8185,12.1182c0.6241,-4.029 1.2226,-8.0582 1.7694,-12.0977c1.6405,-0.0155 3.2811,-0.0155 4.9216,-0.0103c-1.0678,6.237 -2.1564,12.464 -2.9973,18.7371c-2.1306,-0.0103 -4.2613,0.031 -6.3867,-0.0413c-1.4755,-3.9929 -3.3997,-7.8053 -4.8236,-11.8189c-0.7067,3.931 -1.1968,7.8981 -1.7592,11.8551c-1.6611,0.005 -3.3171,0.005 -4.9731,0zm24.0661,-18.7267c1.8831,-0.0105 3.7712,-0.0105 5.6594,-0.005c-0.4231,2.306 -0.8099,4.612 -1.1401,6.9335c2.3009,0 4.5965,0 6.8974,0c0.3818,-2.3007 0.6449,-4.6172 0.9286,-6.9282c1.883,-0.0105 3.7712,-0.0105 5.6594,-0.005c-1.1402,6.2113 -2.1307,12.4485 -2.8168,18.7268c-1.9089,0.0103 -3.8124,0.0103 -5.7212,0c0.4901,-2.5742 0.9234,-5.1588 1.2588,-7.7589c-2.2854,-0.005 -4.5657,-0.0105 -6.846,0.005c-0.3971,2.5794 -0.7428,5.1642 -1.0884,7.7486c-1.8727,0.0208 -3.7403,0.0156 -5.613,0.005c1.166,-6.2062 2.1668,-12.4431 2.8219,-18.7215l0,-0.0003zm16.8077,18.7267c3.8589,-6.1597 7.5784,-12.4021 11.1587,-18.732c2.1925,0 4.3903,-0.0102 6.588,0.0103c1.3257,6.263 2.7651,12.4948 4.2458,18.7217c-1.9243,0.005 -3.8487,0 -5.7728,0.005c-0.2631,-1.4704 -0.5108,-2.9456 -0.7533,-4.4159c-2.3885,0 -4.772,-0.0466 -7.1553,0.036c-0.7327,1.4754 -1.5168,2.9303 -2.3009,4.3748c-2.0068,0 -4.0085,0.005 -6.0102,0l0,0.0001zm10.3436,-8.3884c1.4704,0.005 2.9407,0.005 4.416,0.0103c-0.3455,-2.0944 -0.7016,-4.1788 -1.073,-6.2628c-1.1246,2.0791 -2.2338,4.1684 -3.343,6.2525zm13.2687,8.3884c1.1144,-6.2163 2.012,-12.4691 2.8271,-18.732c3.477,0.0155 6.9594,-0.031 10.4468,0.0155c1.7901,-0.0257 3.5906,1.0216 4.2612,2.724c1.0782,2.8735 0.6088,6.6137 -1.9552,8.5637c-2.0945,1.687 -4.9371,1.7177 -7.4804,1.4083c0.1445,-1.1916 0.2941,-2.3834 0.4488,-3.5699c1.3104,0.0723 2.9819,0.1649 3.7299,-1.1609c0.681,-1.1865 0.9337,-3.3429 -0.6758,-3.8741c-1.46,-0.2889 -2.9613,-0.0568 -4.4315,-0.0364c-0.7894,4.8703 -1.4909,9.7556 -2.0327,14.6618c-1.7127,0.005 -3.4254,0.005 -5.1382,0zm21.9356,0c1.1917,-6.2163 2.1409,-12.4742 2.9561,-18.7475c2.1667,0.0258 4.3283,0.0103 6.495,0.0155c1.6095,4.0343 3.1728,8.0892 4.7875,12.1235c0.6707,-4.0293 1.3154,-8.0635 1.7952,-12.1235c1.6509,-0.005 3.3121,-0.005 4.9681,0.005c-1.0473,6.2317 -2.1255,12.4587 -2.987,18.7215c-2.1203,0.0103 -4.2406,0.0103 -6.3557,0c-1.5735,-3.9929 -3.4204,-7.8673 -4.9577,-11.8757c-0.5831,3.9516 -1.1917,7.9033 -1.6715,11.8757c-1.6768,0.0103 -3.3534,0.0103 -5.03,0.005l0,0.0005zm21.1876,0c1.3413,-6.1856 2.2854,-12.4483 3.0024,-18.732c4.6946,0 9.3892,0 14.089,0c-0.2115,1.3929 -0.4178,2.7858 -0.6139,4.1787c-2.8529,-0.1342 -5.711,-0.1703 -8.5638,-0.1494c-0.1806,1.0833 -0.3508,2.1717 -0.5159,3.2603c2.4299,0.0103 4.8545,-0.0516 7.2843,-0.0981c-0.2269,1.3723 -0.459,2.7447 -0.6912,4.1221c-2.4299,0.0102 -4.8649,-0.005 -7.2947,0.0102c-0.1702,1.1247 -0.3456,2.2544 -0.5056,3.3844c2.9097,0 5.8192,-0.093 8.7238,-0.2632c-0.2478,1.4288 -0.4953,2.8579 -0.7533,4.287c-4.7204,0.005 -9.4407,0.005 -14.1611,0zm18.3192,-18.732c1.7333,-0.005 3.4668,-0.005 5.2002,0c0.2218,4.3491 0.6861,8.6773 0.9441,13.0209c1.4547,-4.3436 3.0231,-8.6461 4.3748,-13.0209c1.9551,0 3.9154,-0.005 5.8759,0.005c0.0722,4.2922 0.2063,8.5844 0.5106,12.8714c1.5735,-4.3334 3.3997,-8.569 5.0404,-12.8767c1.6921,-0.005 3.3893,-0.005 5.0866,0.005c-2.6104,6.2267 -5.2724,12.438 -7.7487,18.7215c-2.2183,0.0155 -4.4314,0.0103 -6.6446,0c-0.2271,-3.8073 -0.5365,-7.6093 -0.5726,-11.4217c-1.1298,3.8795 -2.6568,7.6246 -3.9981,11.432c-2.1358,-0.005 -4.2665,0 -6.3971,-0.0103c-0.4127,-6.2525 -0.9905,-12.4948 -1.6715,-18.7268l0,0.0006zm53.5751,0c0.9854,0 1.9758,0 2.9715,0c1.2897,6.2733 2.8065,12.4948 4.251,18.732c-0.877,0 -1.7437,0 -2.6105,0.005c-0.5055,-2.631 -1.0472,-5.2569 -1.6766,-7.8621c-2.2596,-0.0155 -4.5191,-0.005 -6.7788,-0.0155c-1.5167,2.6155 -2.8941,5.3084 -4.447,7.9034c-0.8821,-0.0206 -1.754,-0.0309 -2.6258,-0.0361c3.668,-6.2268 7.3617,-12.4329 10.9162,-18.7268l0,0.0001zm-2.9766,9.0281c1.8674,0 3.7401,0 5.6128,-0.005c-0.5055,-2.3472 -1.0112,-4.6946 -1.527,-7.0366c-1.4033,2.3215 -2.7239,4.6946 -4.0858,7.0419l0,-0.0003zm28.9309,9.6987c1.0782,-6.2164 1.9966,-12.4586 2.7705,-18.7268c3.7401,-0.005 7.4802,0 11.2257,0c-0.0878,0.4953 -0.258,1.4805 -0.3458,1.9707c-2.9095,-0.098 -5.814,-0.0671 -8.7235,-0.0671c-0.3147,2.1257 -0.6139,4.256 -0.9133,6.3817c2.6209,0 5.2363,-0.005 7.8623,0.005c-0.0723,0.4745 -0.2167,1.4186 -0.2941,1.8933c-2.6258,0.0155 -5.2467,-0.005 -7.8725,0.0155c-0.3404,2.2081 -0.6861,4.4161 -1.0163,6.6241c2.9612,0.0259 5.9277,0 8.8939,-0.1031c-0.1237,0.6706 -0.2373,1.3413 -0.3508,2.0119c-3.7453,0 -7.4907,0.0103 -11.2361,-0.005l0,-0.0002zm49.7318,-18.7215c0.8873,-0.005 1.7747,-0.005 2.6723,-0.005c1.0214,2.8375 2.2441,5.5921 3.2707,8.4295c1.9862,-2.796 3.9828,-5.5868 5.8967,-8.4347c0.8872,0 1.7797,0.005 2.6774,0.005c-2.5433,3.5752 -5.2414,7.0472 -7.7228,10.6585c-0.6243,2.6463 -0.7791,5.391 -1.2434,8.0735c-0.8408,0 -1.6765,0 -2.5021,0.005c0.418,-2.729 1.0319,-5.4323 1.3105,-8.1769c-1.3311,-3.5647 -2.9405,-7.0264 -4.3593,-10.5549z"/>
</svg>